<svg xmlns="http://www.w3.org/2000/svg" viewBox="0 0 179.33 148.23"><title>listen</title><path d="M2.14,121.94c6.07,0,11.7.14,17.32-.05,3.31-.11,5.34.43,6.68,4.13,0.7,1.92,4.1,3.71,6.44,3.95s4.64-1.67,7.41-2.8c0,2.9-.5,6,0.15,8.79,0.55,2.36,2,5.52,3.85,6.3,2.13,0.89,5.23-.37,7.85-0.92,0.84-.18,1.52-1.11,2.6-2a27.59,27.59,0,0,0,.8,4.26c1.35,3.68,4.19,5,7.93,4.5,3.51-.46,5.38-2.63,5.39-6.08q0.08-28.49,0-57c0-3.81-2.77-6.38-5.95-6.09-2.58.23-5.09,2.82-7.28,4.76-0.82.73-.64,2.59-1.1,4.85-3-4.27-6.6-5.46-10.51-3.61S39.86,90.83,40,94.57c0.06,1.91,0,3.83,0,6.24C32.3,95,27.93,95.45,25.71,102.08c-1.2,3.59-3.59,4-6,3.12-1.38-.49-2.94-3.09-2.85-4.64,0.61-9.93.74-20,2.74-29.7,5-24.21,17.71-42.63,42.49-50.24,17.75-5.45,35.77-5.36,53.64-.48,15.09,4.12,26.91,12.94,34.86,26.52,9.92,16.94,12.27,35.63,11.86,54.82,0,1.34-1.88,3.33-3.29,3.8-2.16.72-4.31,0.35-5.45-2.67-2.63-6.95-6.88-7.8-12.46-2.9-0.33.29-.75,0.5-2,1.29,0-3.72.19-6.82,0-9.88-0.47-6.3-6.46-9-11.61-5.33l-2.86,2c-0.32-1.78-.09-3.61-0.86-4.25-2.25-1.88-4.82-4.42-7.41-4.6-3.19-.22-5.79,2.4-5.79,6.23,0,19-.08,38,0,57,0,4.32,2.87,6.1,7,6,5.46-.11,6.4-4.26,7.11-8.54,6,4.11,10.68,4.8,12.37,1.1,1.89-4.14,2.07-9.06,3-13.53,6.93,5,9.16,4.37,14.2-3.62,0.64-1,2.7-1.57,4.12-1.61,6.1-.17,12.22-0.07,18.31-0.07a130.82,130.82,0,0,0-.56-54.09c-6-27.75-20-49.47-47.17-60.88C112.18-.12,94.37-0.91,76.54.71,51.45,3,30.18,13.09,16.3,34.94-0.66,61.63-2.38,91.05,2.14,121.94Z"/></svg>