<?xml version="1.0" encoding="utf-8"?>
<!-- Generator: Adobe Illustrator 19.2.1, SVG Export Plug-In . SVG Version: 6.00 Build 0)  -->
<svg version="1.1" xmlns="http://www.w3.org/2000/svg" xmlns:xlink="http://www.w3.org/1999/xlink" x="0px" y="0px"
	 viewBox="0 0 60 50" style="enable-background:new 0 0 60 50;" xml:space="preserve">
<style type="text/css">
	.st0{fill:#D1D3D3;}
</style>
<g id="Layer_2">
</g>
<g id="Layer_3">
</g>
<g id="Layer_1">
	<g>
		<path class="st0" d="M5,43.7C5,31.2,5,18.8,5,6.3c0.9,0,1.8,0,2.8,0c0,11.5,0,22.9,0,34.5c15.8,0,31.4,0,47.2,0c0,1,0,1.9,0,2.9
			C38.4,43.7,21.8,43.7,5,43.7z"/>
		<path class="st0" d="M42.9,9.4c2,0,3.9,0,5.8,0c0,9.3,0,18.6,0,28c-1.9,0-3.8,0-5.8,0C42.9,28.1,42.9,18.9,42.9,9.4z"/>
		<path class="st0" d="M29.8,37.4c-2,0-3.8,0-5.8,0c0-8.3,0-16.5,0-24.8c1.9,0,3.8,0,5.8,0C29.8,20.8,29.8,29,29.8,37.4z"/>
		<path class="st0" d="M39.3,37.4c-2.1,0-3.9,0-5.9,0c0-6.2,0-12.3,0-18.5c2,0,3.9,0,5.9,0C39.3,25.1,39.3,31.2,39.3,37.4z"/>
		<path class="st0" d="M14.5,37.4c0-4.1,0-8,0-12.1c1.9,0,3.8,0,5.9,0c0,4,0,8,0,12.1C18.4,37.4,16.5,37.4,14.5,37.4z"/>
	</g>
</g>
</svg>
