<?xml version="1.0" encoding="utf-8"?>
<!-- Generator: Adobe Illustrator 19.2.1, SVG Export Plug-In . SVG Version: 6.00 Build 0)  -->
<svg version="1.1" xmlns="http://www.w3.org/2000/svg" xmlns:xlink="http://www.w3.org/1999/xlink" x="0px" y="0px"
	 viewBox="0 0 60 50" style="enable-background:new 0 0 60 50;" xml:space="preserve">
<style type="text/css">
	.st0{fill:#D1D3D3;}
</style>
<g id="Layer_2">
</g>
<g id="Layer_3">
</g>
<g id="Layer_1">
	<g>
		<path class="st0" d="M10.8,30.4c-0.8-0.7-1.5-1.5-2.4-2C7.8,28.1,7,28.1,6.3,28c-0.9-0.1-1.4-0.6-1.3-1.6c0-0.2,0-0.3,0-0.5
			c0-3.8,0-3.8,3.7-4.6c1.4-0.3,2.1-1.8,1.3-3c-0.1-0.1-0.1-0.2-0.2-0.3c-0.6-0.9-1.8-2.3-1.5-2.7c0.9-1.5,2.3-2.7,3.7-3.8
			c0.3-0.2,1.3,0.5,1.9,0.8c0.9,0.5,1.6,1.9,2.9,1c0.6-0.4,1-1,1.3-1.6c0.3-0.6,0.2-1.3,0.4-2c0-0.2,0-0.4,0.1-0.5
			c1.2-2.1,3.2-0.7,4.9-0.9c0.4-0.1,1.2,0.8,1.5,1.3c0.3,0.7,0.2,1.5,0.4,2.3c0.3,1.4,1.8,2,3,1.2c3.1-2.1,3.1-2,5.7,0.6
			c1.2,1.2,1.3,2.1,0.1,3.4c-0.6,0.6-1,1.6-1,2.4c0,1.4,1.2,1.8,2.4,2c2.8,0.3,2.7,0.4,2.7,3.1c0,3.1,0,3.2-3.2,3.6
			c-1.2,0.2-2,0.7-2,1.8c0,0.7,0.4,1.6,0.8,2.2c1.6,2.1,1.6,2.1-0.3,4c-0.2,0.2-0.3,0.3-0.5,0.5c-2,2-2,2-4.1,0.3
			c-2.1-1.6-3.4-1.2-3.8,1.4c-0.1,0.5,0,1.2-0.3,1.6c-0.4,0.6-1,1-1.5,1.4c-0.1,0.1-0.4,0-0.7,0c-3.7,0-3.7,0-4.5-3.6
			c-0.4-1.6-1.9-2.2-3.2-1.3c-2.9,2-2.9,2-5.3-0.5c-1.7-1.8-1.7-1.8-0.1-3.9C9.8,31.9,10.2,31.3,10.8,30.4z M28.4,25
			c0-3.8-2.9-6.8-6.7-6.8c-3.9,0-6.9,2.9-6.9,6.8c0,3.8,2.9,6.8,6.7,6.8C25.4,31.8,28.4,28.9,28.4,25z"/>
		<path class="st0" d="M39.7,15.7c-0.3-1.4-1.2-1.9-2.5-1.9c-1.5,0-2.3-0.5-2.2-2.3c0-1.6,0.6-2.1,2.1-2.2c2.5-0.2,3-1,2.1-3.2
			c-0.8-2,0-3.5,2.1-3.7c0.5-0.1,1.1,0.6,1.5,1c1.9,2.2,2.6,2.3,4.3,0c1.1-1.5,2-0.8,3.2-0.2c1.4,0.7,1,1.6,0.6,2.6
			c-0.2,0.6-0.7,1.3-0.6,1.9c0.2,1.2,1.1,1.7,2.3,1.7c1.4,0,2.3,0.4,2.3,2.2c0,1.7-0.7,2.2-2.2,2.3c-2.4,0.2-2.9,1-1.9,3.3
			c0.7,1.8-0.3,3.6-2.2,3.6c-0.5,0-1.1-0.6-1.5-1.1c-1.8-2.2-2.4-2.2-4.2,0c-1,1.3-3.5,1-4.2-0.4c-0.2-0.4,0.1-1.1,0.2-1.6
			C39.2,17,39.5,16.3,39.7,15.7z M48.5,11.7c0-1.9-1.5-3.5-3.4-3.5c-1.9,0-3.5,1.5-3.5,3.5c0,1.9,1.5,3.4,3.3,3.4
			C46.8,15.1,48.4,13.6,48.5,11.7z"/>
		<path class="st0" d="M42,28.6c0.3,0.6,0.6,1.2,1,1.7c1.7,2.1,2.5,2.2,4,0c1-1.4,1.8-1.2,3.2-0.5c1.6,0.8,1.2,1.7,0.7,2.8
			c-1,2.5-0.6,3.2,2.1,3.4c1.6,0.1,2,0.9,2,2.4c0,1.6-0.6,2-2,2.2c-2.7,0.2-3.1,0.9-2.1,3.4c0.6,1.6-0.7,3.7-2.4,3.5
			c-0.5-0.1-1.1-0.7-1.5-1.2c-1.7-2-2.4-2-4,0c-1.2,1.4-3.1,1.4-4.2-0.2c-0.2-0.4,0-1.2,0.1-1.7c1.1-3.1,0.9-3.4-2.2-3.8
			c-1.4-0.2-1.7-0.9-1.7-2.2c0-1.3,0.3-2.1,1.7-2.2c0.2,0,0.3,0,0.5,0c2.3-0.2,2.8-1,1.9-3.2c-0.8-1.9,0.3-3.7,2.2-3.8
			C41.6,28.9,41.8,28.8,42,28.6z M48.5,38.3c0-1.9-1.6-3.5-3.5-3.5c-1.9,0-3.4,1.6-3.4,3.5c0,1.9,1.5,3.3,3.4,3.4
			C46.9,41.8,48.5,40.3,48.5,38.3z"/>
	</g>
</g>
</svg>
