<?xml version="1.0" encoding="utf-8"?>
<!-- Generator: Adobe Illustrator 19.2.1, SVG Export Plug-In . SVG Version: 6.00 Build 0)  -->
<svg version="1.1" xmlns="http://www.w3.org/2000/svg" xmlns:xlink="http://www.w3.org/1999/xlink" x="0px" y="0px"
	 viewBox="0 0 60 50" style="enable-background:new 0 0 60 50;" xml:space="preserve">
<style type="text/css">
	.st0{fill:#D1D3D3;}
</style>
<g id="Layer_2">
</g>
<g id="Layer_3">
</g>
<g id="Layer_1">
	<g>
		<path class="st0" d="M23.5,28.2c4-1.6,7.6-2.7,11-4.3c2.9-1.4,4-4.2,4.2-7.3c0-0.6-0.6-1.3-1.1-1.9c-2.1-2.2-2.6-4.9-1.3-7.3
			c1.2-2.2,3.8-3.6,6.1-3.3c2.9,0.5,4.8,2.3,5.3,5.2c0.3,2.1-0.5,3.8-1.9,5.3c-0.6,0.7-1.2,1.7-1.3,2.7c-0.5,5.8-3.3,10-8.7,12.4
			c-2.4,1.1-5,1.8-7.5,2.7c-1,0.4-2.1,0.8-3,1.4c-2.1,1.4-2.3,3.8-0.6,5.6c2.5,2.5,2.5,6.2,0.1,8.6c-2.4,2.4-6.1,2.4-8.5,0.1
			c-2.4-2.4-2.5-6.2,0-8.6c1-1,1.4-1.9,1.4-3.3c0-7.6,0-15.3-0.1-22.9c0-1-0.6-2.2-1.3-3c-2.4-2.6-2.5-6.3-0.1-8.7
			c2.4-2.4,6.1-2.4,8.5-0.1c2.4,2.4,2.6,6.2,0,8.6c-1.1,1.1-1.4,2.1-1.4,3.5C23.5,18.4,23.5,23.1,23.5,28.2z M23.9,6
			c-0.1-1.8-1.8-3.3-3.5-3.2c-1.8,0.1-3.3,1.8-3.2,3.6C17.4,8,19,9.5,20.6,9.5C22.4,9.4,24,7.7,23.9,6z M45,10.4
			C45,8.6,43.4,7,41.6,7c-1.7,0-3.3,1.5-3.4,3.2c-0.1,1.7,1.5,3.4,3.2,3.5C43.2,13.7,44.9,12.1,45,10.4z M20.7,47.3
			c1.8,0,3.4-1.7,3.3-3.5c-0.1-1.7-1.6-3.2-3.3-3.2c-1.7,0-3.4,1.6-3.4,3.4C17.2,45.7,18.9,47.3,20.7,47.3z"/>
	</g>
</g>
</svg>
