<svg xmlns="http://www.w3.org/2000/svg" viewBox="0 0 148.1 179.34"><title>document</title><path d="M0,89.54q0-41,0-82C0,0.36.4,0,7.73,0c27.82,0,55.65-.1,83.47.15a12.75,12.75,0,0,1,8.2,3.45c15.68,16.1,31.1,32.46,46.47,48.86A8.36,8.36,0,0,1,148,57.67c0.12,38.65.07,77.31,0.12,116,0,3.94-1.49,5.71-5.63,5.7q-68.48-.11-137,0c-5.12,0-5.52-2.94-5.51-6.83Q0.07,131,0,89.54Zm7.71,0.12c0,25.33.1,50.65-.1,76,0,4.52,1.19,6.09,5.83,6.07q60.48-.21,121,0c4.36,0,6.07-1,6-5.86q-0.32-50.23,0-100.47c0-4.39-1.29-5.82-5.64-5.75-12.66.21-25.33,0-38,.12-4.64.06-6.58-1.52-6.5-6.39,0.23-13.49-.06-27,0.17-40.48,0.07-3.94-1.18-5.24-5.06-5.22Q49.2,7.8,13,7.62c-4.22,0-5.33,1.52-5.31,5.56C7.81,38.68,7.74,64.17,7.74,89.66ZM99.86,15.49L98.29,16c0,11.24-.08,22.49.19,33.72,0,0.77,2.69,2.06,4.15,2.1,7.65,0.21,15.32.1,23,.1h7.58l0.33-1.38Z"/><path d="M73.1,86.34q-17.21,0-34.42,0c-2.91,0-6.18.14-6.16-3.89,0-3.75,3.14-3.59,5.87-3.59h68.84c2.7,0,5.72-.27,5.57,3.77-0.14,3.85-3,3.7-5.79,3.7Q90.06,86.32,73.1,86.34Z"/><path d="M73.09,112.34q-17.21,0-34.42,0c-2.92,0-6.18.12-6.16-3.9,0-3.76,3.15-3.58,5.88-3.58h68.84c2.71,0,5.72-.26,5.57,3.77-0.14,3.84-3,3.7-5.79,3.7Q90.05,112.32,73.09,112.34Z"/><path d="M72.73,137.34c-11.48,0-23,0-34.43,0-2.84,0-5.74-.19-5.78-3.81s3-3.89,5.75-3.9q34.43,0,68.86,0c2.66,0,5.71-.11,5.68,3.84s-2.84,3.86-5.64,3.85Q89.94,137.31,72.73,137.34Z"/></svg>