<?xml version="1.0" encoding="utf-8"?>
<!-- Generator: Adobe Illustrator 19.2.1, SVG Export Plug-In . SVG Version: 6.00 Build 0)  -->
<svg version="1.1" xmlns="http://www.w3.org/2000/svg" xmlns:xlink="http://www.w3.org/1999/xlink" x="0px" y="0px"
	 viewBox="0 0 60 50" style="enable-background:new 0 0 60 50;" xml:space="preserve">
<style type="text/css">
	.st0{fill:#D1D3D3;}
</style>
<g id="Layer_2">
</g>
<g id="Layer_3">
</g>
<g id="Layer_1">
	<g>
		<path class="st0" d="M55,16.7c-0.6,0.2-1.1,0.5-1.7,0.7c-7.3,2.3-14.6,4.6-22,6.9c-0.8,0.3-1.8,0.2-2.7,0c-4-1.2-7.9-2.4-11.8-3.7
			c-1.3-0.4-2.1-0.1-2.5,1.1c-0.5,1.3-0.9,2.6-1.2,4c-0.1,0.5,0.2,1.2,0.5,1.7c0.9,1.2,0.9,2.3,0.1,3.5c-0.3,0.5-0.4,1.3-0.4,1.9
			c0.2,2.4,0.5,4.9,0.9,7.3c0.2,1.2-0.2,1.6-1.4,1.6c-3.9,0.2-4,0.1-3.3-3.7c0.3-1.8,0.6-3.7,0.7-5.5c0-0.5-0.2-1.1-0.5-1.5
			c-0.9-1.2-0.8-2.4,0.1-3.5c0.3-0.3,0.6-0.7,0.7-1.2c0.6-2.2,1.1-4.5,1.7-6.9C10,18.4,7.5,17.6,5,16.8c0-0.2,0-0.3,0-0.5
			c0.5-0.3,1-0.6,1.6-0.7c7.4-2.3,14.8-4.7,22.2-7c0.7-0.2,1.5-0.3,2.2-0.1c7.7,2.4,15.3,4.8,23,7.2c0.4,0.1,0.7,0.3,1.1,0.5
			C55,16.4,55,16.5,55,16.7z"/>
		<path class="st0" d="M16.6,23.8c3.8,1.2,7.4,2.5,10.9,3.4c1.5,0.4,3.4,0.4,4.9,0c3.6-0.9,7.2-2.2,11-3.4c0.2,2.4,0.6,4.6,0.3,6.8
			c-0.1,1-1.2,2.3-2.1,2.7c-2.1,1-4.4,1.8-6.8,2.2c-4.6,0.8-9.3,0.5-13.8-0.9c-1.1-0.4-2.3-0.9-3.3-1.6c-1.3-0.8-1.8-2-1.6-3.6
			C16.4,27.6,16.5,25.8,16.6,23.8z"/>
	</g>
</g>
</svg>
