<svg xmlns="http://www.w3.org/2000/svg" viewBox="0 0 179.16 179.02"><title>energy-environment</title><path d="M89.49,179C39.9,178.92-.21,138.93,0,89.42,0.23,37.24,43.76-.93,91.27,0A89.51,89.51,0,0,1,89.49,179ZM9.28,89.54c0,44.2,36.17,80.6,80.21,80.66S169.91,134,170,89.83C170.09,45.31,133.91,9,89.53,9,45.35,9.07,9.29,45.25,9.28,89.54Z"/><path d="M9.28,89.54C9.29,45.25,45.35,9.07,89.53,9,133.91,9,170.09,45.31,170,89.83c-0.09,44.15-36.45,80.44-80.52,80.37S9.26,133.74,9.28,89.54ZM61.19,133L134.71,90.5,61.19,48v85Z" fill="#fff"/><path d="M61.19,133V48L134.71,90.5Z"/></svg>