<?xml version="1.0" encoding="utf-8"?>
<!-- Generator: Adobe Illustrator 19.2.1, SVG Export Plug-In . SVG Version: 6.00 Build 0)  -->
<svg version="1.1" xmlns="http://www.w3.org/2000/svg" xmlns:xlink="http://www.w3.org/1999/xlink" x="0px" y="0px"
	 viewBox="0 0 60 50" style="enable-background:new 0 0 60 50;" xml:space="preserve">
<style type="text/css">
	.st0{fill:#D1D3D3;}
</style>
<g id="Layer_2">
</g>
<g id="Layer_3">
</g>
<g id="Layer_1">
	<g>
		<path class="st0" d="M30,45c-10.9,0.1-20.1-9.2-20-20.1C10.1,14,19.1,5.1,30,5c10.9-0.1,20.1,9.2,20,20.1C49.9,36,40.9,44.9,30,45
			z M33.4,17c-0.8-0.8-1.3-1.5-2.1-1.8c-0.9-0.4-2.6,0-2.7-1.5c0-1.5,1.8-1.5,2.6-2.4c0.2-0.2,0.7-0.1,1-0.2
			c0.5-0.2,0.5-0.7,0.4-1.1c-0.1-0.5-0.6-0.8-0.9-0.5c-1.2,1-2,0.1-2.9-0.6c-0.5-0.4-1.4-0.7-1.3,0.3c0.1,1.7-1.4,1-1.5,0.9
			c-1-1.4-1.8-0.3-2.9-0.1c-3.1,0.7-4.8,2.9-6.7,5C16,15.4,15.4,16,16,16.4c2,1.3,1.3,3.3,1.4,5.1c0.1,1.1,0.7,2.1,1.5,2.7
			c1.7,1.4,1.8,4.3,4.5,4.7c0.2,0,0.5,0.5,0.5,0.9c0.4,1.7,1.7,2.2,3.1,2.4c1.6,0.3,2.7,1.2,3.9,2.1c0.5,0.4,1,0.9,1.6,1.3
			c0.4,0.3,1-0.3,0.9-0.3c-1.7-0.6-0.3-3-2.1-3.5c-0.5-0.1-0.7-0.4-0.6-0.9c0.4-1.8-0.4-1.4-1.3-0.7c-1.4,1.1-1.9,0.2-2.1-1
			c-0.4-2.1,1.8-3.9,3.7-2.8c1.9,1.1,2.2,2,2.5-1.1c0.2-1.8,2.1-4.2,4.4-5.3c0.4-0.2,0.9-0.4,0.8-0.9c-0.2-1.2,0.4-1.3,1.4-1.4
			c0.7,0,1.5-0.4,1.6-1.1c0.1-0.7-0.9-0.9-1.1-1.3c-0.9-1.9-3.2-1.4-4.4-2.7c-0.4-0.4-1.3-0.8-2-0.4c-0.8,0.4-0.7,1.3-0.4,1.9
			C34.3,15.4,33.1,15.8,33.4,17z M32.8,40.1c-0.3,1.4,0.3,1.7,1.4,1.4c2.7-0.7,5.2-2,7.2-4c0.3-0.3,0.7-0.5,0.5-1
			c-0.8-2-6.7-3.2-7.8-1.4C33.3,36.6,33.5,38.5,32.8,40.1z"/>
	</g>
</g>
</svg>
