<?xml version="1.0" encoding="utf-8"?>
<!-- Generator: Adobe Illustrator 19.2.1, SVG Export Plug-In . SVG Version: 6.00 Build 0)  -->
<svg version="1.1" xmlns="http://www.w3.org/2000/svg" xmlns:xlink="http://www.w3.org/1999/xlink" x="0px" y="0px"
	 viewBox="0 0 60 50" style="enable-background:new 0 0 60 50;" xml:space="preserve">
<style type="text/css">
	.st0{fill:#D1D3D3;}
</style>
<g id="Layer_2">
</g>
<g id="Layer_3">
</g>
<g id="Layer_1">
	<g>
		<path class="st0" d="M53.7,8.3H6.3C5.6,8.3,5,8.9,5,9.7v30.6c0,0.7,0.6,1.3,1.3,1.3h47.3c0.7,0,1.3-0.6,1.3-1.3V9.7
			C55,8.9,54.4,8.3,53.7,8.3z M51.7,31.2c-3.7,0.2-6.7,3.3-6.7,7c0,0.1,0,0.2,0,0.3H15c0-0.1,0-0.2,0-0.3c0-3.8-3-6.9-6.7-7V18.5
			c3.7-0.2,6.7-3.2,6.7-7h30c0,3.7,3,6.8,6.7,7V31.2z"/>
		<path class="st0" d="M30,14.4c-4.6,0-8.3,4.7-8.3,10.6s3.7,10.6,8.3,10.6s8.3-4.7,8.3-10.6S34.6,14.4,30,14.4z M35.3,31.7H25.2
			v-2.5h3.5v-7.2l-1.3,1.3L25.2,21l3.5-3.6h3.1v11.7h3.5V31.7z"/>
	</g>
</g>
</svg>
