<?xml version="1.0" encoding="utf-8"?>
<!-- Generator: Adobe Illustrator 19.2.1, SVG Export Plug-In . SVG Version: 6.00 Build 0)  -->
<svg version="1.1" xmlns="http://www.w3.org/2000/svg" xmlns:xlink="http://www.w3.org/1999/xlink" x="0px" y="0px"
	 viewBox="0 0 60 50" style="enable-background:new 0 0 60 50;" xml:space="preserve">
<style type="text/css">
	.st0{fill:#D1D3D3;}
</style>
<g id="Layer_2">
</g>
<g id="Layer_3">
</g>
<g id="Layer_1">
	<g>
		<path class="st0" d="M31.7,29.8c-1.6-5.6-3.2-10.9-4.7-16.3c-0.1-0.4-0.1-1-0.4-1.3c-0.6-0.6-1.4-1.6-2.1-1.6
			c-0.7,0-1.7,1-1.9,1.7c-1,3.3-1.9,6.6-2.6,10c-0.4,2-1.2,2.8-3.2,2.6c-2.3-0.2-4.7-0.2-7,0c-1.7,0.1-2.4-0.6-3.1-1.9
			C2.8,15.5,5.9,6.6,13.2,4.4C18.7,2.7,23.6,4,27.7,7.9c1.8,1.6,2.9,1.6,4.6,0c4.4-4.1,9.5-5.3,15.2-3.2c8.1,3,9.3,13.4,5,19.5
			c-0.3,0.4-1,0.6-1.5,0.7c-0.7,0.1-1.5-0.1-2.2,0.1c-4.7,0.8-8.1-0.4-9.5-5.5c-0.2-0.7-1.6-1.7-2.3-1.6c-0.7,0.1-1.6,1.2-2,2.1
			c-1.1,3-1.9,6.1-2.9,9.2C32.2,29.3,32,29.4,31.7,29.8z"/>
		<path class="st0" d="M37.8,25.3c2.3,6,7.2,2.3,10.6,3.8C46.4,31,44.5,33,42.6,35c-3.5,3.5-7.1,6.9-10.7,10.3c-1,1-2,1.6-3.3,0.4
			c-5.7-5.5-11.3-10.9-17.5-16.9c3.2,0,5.8-0.1,8.5,0c2.4,0.2,3.4-0.9,3.8-3.1c0.3-1.6,0.8-3.2,1.3-5.4c1.5,5.2,2.9,9.9,4.2,14.6
			c0.2,0.7,0.2,1.6,0.6,2.1c0.6,0.9,1.5,1.7,2.2,2.5c0.8-0.8,1.9-1.4,2.3-2.4c1.1-3,1.9-6.1,2.9-9.2C37.1,27.3,37.3,26.6,37.8,25.3z
			"/>
	</g>
</g>
</svg>
