<?xml version="1.0" encoding="utf-8"?>
<!-- Generator: Adobe Illustrator 19.2.1, SVG Export Plug-In . SVG Version: 6.00 Build 0)  -->
<svg version="1.1" xmlns="http://www.w3.org/2000/svg" xmlns:xlink="http://www.w3.org/1999/xlink" x="0px" y="0px"
	 viewBox="0 0 60 50" style="enable-background:new 0 0 60 50;" xml:space="preserve">
<style type="text/css">
	.st0{fill:#D1D3D3;}
</style>
<g id="Layer_2">
</g>
<g id="Layer_3">
</g>
<g id="Layer_1">
	<g>
		<path class="st0" d="M15.4,19.6v16H14c-0.7,0-1.3,0.6-1.3,1.4v1.4l0,0h34.7l0,0v-0.9c0-1-0.8-1.9-1.8-1.9h-0.9v-16h-5.4v16h-2.6
			v-16h-5.4v16h-2.6v-16h-5.4v16h-2.6v-16H15.4z"/>
		<path class="st0" d="M48,39.6H11.5c-0.8,0-1.5,0.7-1.5,1.6v1.6c0,0,0,0,0,0.9h40c0-0.9,0-0.9,0-0.9v-1C50,40.5,49.1,39.6,48,39.6z
			"/>
		<path class="st0" d="M30,6.4l-20,8v2.7h2.7c0.2,0.7,0.9,1.3,1.7,1.3H46c0.7,0,1.3-0.6,1.3-1.3H50v-2.7L30,6.4z"/>
	</g>
</g>
</svg>
