<svg xmlns="http://www.w3.org/2000/svg" viewBox="0 0 128.37 171.1"><title>library-filled</title><rect x="89.42" width="38.95" height="171.1" rx="2.02" ry="2.02" fill="#58595b"/><rect x="95.14" y="36.43" width="27.51" height="6.56" rx="0.38" ry="0.38" fill="#fff"/><rect x="95.14" y="44.74" width="27.51" height="6.56" rx="0.38" ry="0.38" fill="#fff"/><rect x="95.14" y="133.35" width="27.51" height="6.56" rx="0.38" ry="0.38" fill="#fff"/><rect x="44.71" width="38.95" height="171.1" rx="2.02" ry="2.02" fill="#58595b"/><rect width="38.95" height="171.1" rx="2.02" ry="2.02" fill="#58595b"/><rect x="50.43" y="36.43" width="27.51" height="6.56" rx="0.38" ry="0.38" fill="#fff"/><rect x="50.43" y="44.74" width="27.51" height="6.56" rx="0.38" ry="0.38" fill="#fff"/><rect x="50.43" y="133.35" width="27.51" height="6.56" rx="0.38" ry="0.38" fill="#fff"/><rect x="5.72" y="36.37" width="27.51" height="6.56" rx="0.38" ry="0.38" fill="#fff"/><rect x="5.72" y="44.68" width="27.51" height="6.56" rx="0.38" ry="0.38" fill="#fff"/><rect x="5.72" y="133.29" width="27.51" height="6.56" rx="0.38" ry="0.38" fill="#fff"/></svg>