<?xml version="1.0" encoding="utf-8"?>
<!-- Generator: Adobe Illustrator 19.2.1, SVG Export Plug-In . SVG Version: 6.00 Build 0)  -->
<svg version="1.1" xmlns="http://www.w3.org/2000/svg" xmlns:xlink="http://www.w3.org/1999/xlink" x="0px" y="0px"
	 viewBox="0 0 60 50" style="enable-background:new 0 0 60 50;" xml:space="preserve">
<style type="text/css">
	.st0{fill:#D1D3D3;}
</style>
<g id="Layer_2">
</g>
<g id="Layer_3">
</g>
<g id="Layer_1">
	<g>
		<path class="st0" d="M30.2,46.1c-3.3,0-6.6,0-9.9,0c-4.8-0.1-7.3-2.7-6.7-7.5c0.3-2.7,1-5.3,1.9-7.8c0.4-1.1,1.4-2.1,2.4-2.9
			c1.6-1.1,3.5-1.6,5.6-0.2c4.3,3.1,8.8,3,13.2,0.1c2.3-1.5,4.5-1.3,6.4,0.6c0.7,0.7,1.5,1.6,1.7,2.5c0.7,3,1.6,6.1,1.8,9.2
			c0.2,3.8-2.4,5.9-6.5,6C36.8,46.1,33.5,46.1,30.2,46.1z"/>
		<path class="st0" d="M39.1,18.8c0.1,4.8-4,8.9-8.9,9c-4.8,0.1-8.9-4-9-8.9c-0.1-4.8,4-8.9,8.9-9C34.8,9.9,39,14,39.1,18.8z"/>
		<path class="st0" d="M39.7,24.6c0.5-2.2,1-4.3,1.5-6.7c2.8,0.6,5.7-0.2,8.4-1.5c0.4-0.2,1.8,0.6,1.9,1.2c0.5,2.4,0.9,4.9,0.9,7.4
			c0,0.8-1.2,2.1-2,2.4c-2.3,0.8-4.6,1.4-6.8-0.8C42.6,25.5,41,25.2,39.7,24.6z"/>
		<path class="st0" d="M20.5,24.4c-1.6,1-3.3,2-4.9,2.9c-2.1,1.2-4.1,0.6-6.1-0.2c-1.6-0.6-2-2-1.9-3.6c0.2-1.9,0.4-3.9,0.9-5.8
			c0.4-1.5,1.4-2.1,3-1.2c2.4,1.3,5,1.7,7.5,1.2C19.5,20.1,20,22.4,20.5,24.4z"/>
		<path class="st0" d="M22.4,9.8c0,3.1-2.8,6-5.9,5.9c-3.2,0-6-2.8-5.9-6c0.1-3.1,2.7-5.8,5.8-5.8C19.5,3.8,22.3,6.6,22.4,9.8z"/>
		<path class="st0" d="M49.7,9.8c0,3.2-2.9,5.9-6,5.9c-3.2-0.1-5.9-3-5.8-6c0.1-3.1,2.8-5.8,5.9-5.8C46.9,3.9,49.7,6.7,49.7,9.8z"/>
	</g>
</g>
</svg>
