<?xml version="1.0" encoding="utf-8"?>
<!-- Generator: Adobe Illustrator 19.2.1, SVG Export Plug-In . SVG Version: 6.00 Build 0)  -->
<svg version="1.1" xmlns="http://www.w3.org/2000/svg" xmlns:xlink="http://www.w3.org/1999/xlink" x="0px" y="0px"
	 viewBox="0 0 60 50" style="enable-background:new 0 0 60 50;" xml:space="preserve">
<style type="text/css">
	.st0{fill:#D1D3D3;}
</style>
<g id="Layer_2">
</g>
<g id="Layer_3">
</g>
<g id="Layer_1">
	<g>
		<path class="st0" d="M12,15.9c-1.3,0-2.5,0-3.8,0c-2.2-0.1-3.2-1-3.2-3.2C5,11.3,5,9.9,5,8.4c0.1-2,1.1-3,3-3c2.7-0.1,5.4-0.1,8,0
			c1.9,0.1,2.9,1,3,2.9c0.1,1.5,0.1,3.1,0,4.6c-0.1,1.9-1.1,2.8-2.9,2.9c-0.1,0-0.2,0-0.4,0C14.5,15.9,13.3,15.9,12,15.9z"/>
		<path class="st0" d="M30.1,5.4c1.3,0,2.6-0.1,3.9,0c2,0.1,2.9,1.1,3,3c0.1,1.5,0.1,3,0,4.5c-0.1,2-1.1,2.9-3.1,3
			c-2.6,0.1-5.2,0.1-7.9,0c-2.1,0-3-1.1-3.1-3.1c-0.1-1.4-0.1-2.9,0-4.3c0.1-2,1.1-3,3.2-3.1C27.4,5.4,28.8,5.4,30.1,5.4z"/>
		<path class="st0" d="M48,5.4c1.3,0,2.6-0.1,3.9,0c2,0.1,2.9,1.1,3,3c0.1,1.4,0.1,2.9,0,4.3c-0.1,2.1-1,3.1-3.1,3.1
			c-2.6,0.1-5.2,0.1-7.9,0c-2.1,0-3-1.1-3.1-3.1c-0.1-1.4,0-2.7,0-4.1C41,6.4,42,5.5,44.2,5.4C45.5,5.4,46.7,5.4,48,5.4z"/>
		<path class="st0" d="M12.1,30.3c-1.3,0-2.6,0-3.9,0c-2.1-0.1-3.1-1-3.1-3.1C5,25.7,5,24.3,5,22.9c0.1-2.1,1.1-3,3.1-3.1
			c2.6-0.1,5.2-0.1,7.9,0c2,0.1,3,1,3.1,3c0.1,1.5,0.1,3,0,4.5c-0.1,2-1.1,2.9-3,3C14.7,30.3,13.4,30.3,12.1,30.3z"/>
		<path class="st0" d="M29.9,30.3c-1.3,0-2.5,0-3.8,0C24,30.2,23,29.2,23,27c0-1.4-0.1-2.7,0-4.1c0.1-2.1,1-3.1,3.1-3.1
			c2.6-0.1,5.2-0.1,7.9,0c2.1,0.1,3,1.1,3.1,3.1c0.1,1.4,0.1,2.9,0,4.3c-0.1,2-1.1,2.9-3,3C32.6,30.3,31.3,30.3,29.9,30.3z"/>
		<path class="st0" d="M47.9,19.8c1.3,0,2.5,0,3.8,0c2.2,0.1,3.2,1,3.3,3.2c0.1,1.4,0.1,2.9,0,4.3c-0.1,2-1.1,3-3,3
			c-2.7,0.1-5.4,0.1-8,0c-1.9-0.1-2.9-1-3-2.9c-0.1-1.5-0.1-3.1,0-4.6c0.1-1.9,1.1-2.8,2.9-2.9C45.2,19.7,46.6,19.8,47.9,19.8z"/>
		<path class="st0" d="M12,44.6c-1.3,0-2.5,0-3.8,0c-2.2-0.1-3.2-1-3.2-3.2C5,40,5,38.5,5,37.1c0.1-2,1.1-3,3-3
			c2.6-0.1,5.2-0.1,7.9,0c2.1,0,3.1,1,3.1,3.1c0.1,1.4,0.1,2.9,0,4.3c-0.1,2.1-1.1,3-3.1,3.1C14.7,44.6,13.3,44.6,12,44.6z"/>
		<path class="st0" d="M30,44.6c-1.3,0-2.6,0-3.9,0c-2.1-0.1-3-1.1-3.1-3.1c-0.1-1.4,0-2.7,0-4.1c0.1-2.2,1-3.2,3.2-3.2
			c2.6-0.1,5.1-0.1,7.7,0c2.2,0,3.1,1,3.2,3.2c0,1.3,0,2.6,0,3.9c-0.1,2.3-1,3.3-3.3,3.3C32.5,44.6,31.3,44.6,30,44.6z"/>
		<path class="st0" d="M47.8,44.6c-1.3,0-2.5,0-3.8,0c-2.1-0.1-3.1-1-3.1-3.1c-0.1-1.4-0.1-2.9,0-4.3c0.1-2,1-3,3-3.1
			c2.7-0.1,5.4-0.1,8,0c2,0.1,2.9,1,3,3c0.1,1.5,0.1,3,0,4.5c-0.1,2-1.1,2.9-3.1,3c-0.1,0-0.2,0-0.4,0C50.3,44.6,49,44.6,47.8,44.6z
			"/>
	</g>
</g>
</svg>
