<?xml version="1.0" encoding="utf-8"?>
<!-- Generator: Adobe Illustrator 19.2.1, SVG Export Plug-In . SVG Version: 6.00 Build 0)  -->
<svg version="1.1" xmlns="http://www.w3.org/2000/svg" xmlns:xlink="http://www.w3.org/1999/xlink" x="0px" y="0px"
	 viewBox="0 0 60 50" style="enable-background:new 0 0 60 50;" xml:space="preserve">
<style type="text/css">
	.st0{fill:#D1D3D3;}
</style>
<g id="Layer_2">
</g>
<g id="Layer_3">
</g>
<g id="Layer_1">
	<g>
		<path class="st0" d="M12.6,28.3c-0.9,0-1.8,0-2.8,0c-2.9-0.1-4.7-1.8-4.8-4.7c-0.1-1.5,0-3,0-4.5c0.1-3.1,1.8-4.9,5-4.9
			c3.7,0,7.3-0.1,11,0c8.1,0.3,15.2-2.4,21.7-6.7c1.4-0.9,2.7-1.9,4.1-3C48.7,3,50.6,3.6,51.3,6c0.2,0.7,0.3,1.4,0.3,2.1
			c0,2.2,0,4.3,0,6.5c0,1.7-0.3,3.4,2,4.1c0.7,0.2,1.5,1.9,1.3,2.8c-0.2,1.1-1.1,2.3-2.1,2.8c-1.1,0.6-1.4,1.1-1.3,2.1
			c0.1,2.7,0,5.4,0,8.1c0,0.8-0.1,1.6-0.4,2.3c-0.7,2.1-2.6,2.6-4.3,1.3c-5.5-4.3-11.4-7.7-18.3-9.2c-3.8-0.8-4.8-0.5-6.4,2.2
			c-0.4,0.7-0.8,2-0.4,2.6c1.4,2.4-0.9,5.7,1.9,7.8c0.9,0.7,1.6,1.5,2.4,2.3c-1.8,2.4-5.2,3.2-8.8,2.1c-1.4-0.4-2.4-1.1-2.8-2.7
			c-0.6-2.3-1.6-4.4-1.9-6.7C12.3,33.9,12.6,31.2,12.6,28.3z M26.5,25.2c8.1,1,15,4.7,21.6,9.6c0-9.2,0-18,0-27.2
			c-6.6,5-13.5,8.6-21.6,9.7C26.5,20,26.5,22.5,26.5,25.2z"/>
	</g>
</g>
</svg>
