<?xml version="1.0" encoding="utf-8"?>
<!-- Generator: Adobe Illustrator 19.2.1, SVG Export Plug-In . SVG Version: 6.00 Build 0)  -->
<svg version="1.1" xmlns="http://www.w3.org/2000/svg" xmlns:xlink="http://www.w3.org/1999/xlink" x="0px" y="0px"
	 viewBox="0 0 60 50" style="enable-background:new 0 0 60 50;" xml:space="preserve">
<style type="text/css">
	.st0{fill:#D1D3D3;}
</style>
<g id="Layer_2">
</g>
<g id="Layer_3">
</g>
<g id="Layer_1">
	<g>
		<path class="st0" d="M39.3,17c-0.3,2-0.5,3.9-0.7,5.8c-0.1,1.5-0.3,3-0.2,4.4c0.2,3.6,3.3,5.2,6.4,3.3c2-1.2,4-2.4,6.5-1.7
			c2.4,0.7,3.3,2.6,3.6,4.8c0.3,2.2-0.2,4.2-2,5.5c-1.7,1.3-3.7,1.1-5.5,0.1c-1-0.5-1.9-1.6-2.9-1.8c-1.4-0.3-3.1-0.5-4.4,0
			c-1.6,0.6-1.6,2.4-1.4,3.9c0.2,2,0.6,4,0.9,6.3c-3.8,0.3-7.3,0.7-10.9,0.8c-3.2,0-4.4-2.4-2.9-5.2c0.4-0.9,1.1-1.6,1.6-2.4
			c1.5-2.4,1.5-5-0.2-6.8c-1.8-2-5.6-2.5-8.3-1c-2.3,1.3-3.3,3.6-2.4,6.3c0.4,1.3,1.2,2.6,1.9,3.8c1.5,2.6,0.3,5.3-2.6,5.3
			C12.2,48.6,8.6,48.2,5,48c0-10.5,0-20.5,0-30.8c1.9,0.2,3.8,0.5,5.7,0.7c1.5,0.1,3,0.3,4.4,0.2c3.8-0.2,5.3-3.3,3.3-6.5
			c-1.2-1.9-2.2-3.8-1.7-6.1c0.6-2.5,2.5-3.5,4.8-3.8c2.2-0.3,4.3,0.2,5.7,2.1c1.3,1.8,1,3.8-0.1,5.7c-0.5,0.9-1.3,1.8-1.8,2.7
			c-1.5,2.9-0.3,5.4,2.9,5.6c3.2,0.2,6.4-0.3,9.6-0.5C38.2,17.1,38.7,17,39.3,17z"/>
	</g>
</g>
</svg>
