<?xml version="1.0" encoding="utf-8"?>
<!-- Generator: Adobe Illustrator 19.2.1, SVG Export Plug-In . SVG Version: 6.00 Build 0)  -->
<svg version="1.1" xmlns="http://www.w3.org/2000/svg" xmlns:xlink="http://www.w3.org/1999/xlink" x="0px" y="0px"
	 viewBox="0 0 60 50" style="enable-background:new 0 0 60 50;" xml:space="preserve">
<style type="text/css">
	.st0{fill:#D1D3D3;}
</style>
<g id="Layer_2">
</g>
<g id="Layer_3">
</g>
<g id="Layer_1">
	<path class="st0" d="M48.5,40.6c-0.3-0.8-0.8-1.5-1.2-2.2c-3.8-6-7.6-12-11.4-18c-0.4-0.6-0.9-1.4-0.9-2.1c-0.1-3.3,0-6.7,0-10.1
		c0.1,0,0.2,0,0.3,0h1.3c0.9,0,1.6-0.7,1.6-1.6S37.4,5,36.6,5H23.4c-0.9,0-1.6,0.7-1.6,1.6s0.7,1.6,1.6,1.6h1.7
		c0,2.8,0.1,5.6-0.1,8.3c-0.1,1.5-0.5,3-1.2,4.3C20,27,15.9,33.2,12,39.5c-1.9,3.1-0.8,5.1,2.8,5.4c0.4,0,0.8,0,1.3,0
		c9.3,0,18.6,0,27.9,0c0.8,0,1.7-0.1,2.5-0.3C48.6,44.2,49.4,42.7,48.5,40.6z M20.4,31.7c1.9-3.1,3.5-5.9,5.4-8.5
		c1.8-2.5,2.6-5.1,2.3-8.2c-0.2-2.2,0-4.4,0-6.8c1.2,0,2.3,0,3.6,0c0,2.6,0.1,5.2,0,7.8c-0.1,2.3,0.4,4.3,1.8,6.3
		c2.1,2.9,3.9,6.1,6,9.4C33,31.7,27,31.7,20.4,31.7z"/>
</g>
</svg>
