<svg width="16" height="292" viewBox="0 0 16 292" xmlns="http://www.w3.org/2000/svg" xmlns:xlink="http://www.w3.org/1999/xlink"><svg viewBox="0 0 179.33 148.23" width="16" height="13.23" id="audio"><title>listen</title><path d="M2.14 121.94c6.07 0 11.7.14 17.32-.05 3.31-.11 5.34.43 6.68 4.13.7 1.92 4.1 3.71 6.44 3.95s4.64-1.67 7.41-2.8c0 2.9-.5 6 .15 8.79.55 2.36 2 5.52 3.85 6.3 2.13.89 5.23-.37 7.85-.92.84-.18 1.52-1.11 2.6-2a27.59 27.59 0 0 0 .8 4.26c1.35 3.68 4.19 5 7.93 4.5 3.51-.46 5.38-2.63 5.39-6.08q.08-28.49 0-57c0-3.81-2.77-6.38-5.95-6.09-2.58.23-5.09 2.82-7.28 4.76-.82.73-.64 2.59-1.1 4.85-3-4.27-6.6-5.46-10.51-3.61s-3.86 5.9-3.72 9.64c.06 1.91 0 3.83 0 6.24-7.7-5.81-12.07-5.36-14.29 1.27-1.2 3.59-3.59 4-6 3.12-1.38-.49-2.94-3.09-2.85-4.64.61-9.93.74-20 2.74-29.7 5-24.21 17.71-42.63 42.49-50.24 17.75-5.45 35.77-5.36 53.64-.48 15.09 4.12 26.91 12.94 34.86 26.52 9.92 16.94 12.27 35.63 11.86 54.82 0 1.34-1.88 3.33-3.29 3.8-2.16.72-4.31.35-5.45-2.67-2.63-6.95-6.88-7.8-12.46-2.9-.33.29-.75.5-2 1.29 0-3.72.19-6.82 0-9.88-.47-6.3-6.46-9-11.61-5.33l-2.86 2c-.32-1.78-.09-3.61-.86-4.25-2.25-1.88-4.82-4.42-7.41-4.6-3.19-.22-5.79 2.4-5.79 6.23 0 19-.08 38 0 57 0 4.32 2.87 6.1 7 6 5.46-.11 6.4-4.26 7.11-8.54 6 4.11 10.68 4.8 12.37 1.1 1.89-4.14 2.07-9.06 3-13.53 6.93 5 9.16 4.37 14.2-3.62.64-1 2.7-1.57 4.12-1.61 6.1-.17 12.22-.07 18.31-.07a130.82 130.82 0 0 0-.56-54.09c-6-27.75-20-49.47-47.17-60.88C112.18-.12 94.37-.91 76.54.71 51.45 3 30.18 13.09 16.3 34.94c-16.96 26.69-18.68 56.11-14.16 87z"/></svg><svg viewBox="0 0 60 50" width="16" height="13.33" id="behavioral-economics" y="14"><style>.bst0{fill:#d1d3d3}</style><g id="bLayer_1"><path class="bst0" d="M5 43.7V6.3h2.8v34.5H55v2.9H5z"/><path class="bst0" d="M42.9 9.4h5.8v28h-5.8v-28zM29.8 37.4H24V12.6h5.8v24.8zM39.3 37.4h-5.9V18.9h5.9v18.5zM14.5 37.4V25.3h5.9v12.1h-5.9z"/></g></svg><svg viewBox="0 0 60 50" width="16" height="13.33" id="cognitive-brain" y="28"><style>.cst0{fill:#d1d3d3}</style><g id="cLayer_1"><path class="cst0" d="M10.8 30.4c-.8-.7-1.5-1.5-2.4-2-.6-.3-1.4-.3-2.1-.4-.9-.1-1.4-.6-1.3-1.6v-.5c0-3.8 0-3.8 3.7-4.6 1.4-.3 2.1-1.8 1.3-3-.1-.1-.1-.2-.2-.3-.6-.9-1.8-2.3-1.5-2.7.9-1.5 2.3-2.7 3.7-3.8.3-.2 1.3.5 1.9.8.9.5 1.6 1.9 2.9 1 .6-.4 1-1 1.3-1.6.3-.6.2-1.3.4-2 0-.2 0-.4.1-.5 1.2-2.1 3.2-.7 4.9-.9.4-.1 1.2.8 1.5 1.3.3.7.2 1.5.4 2.3.3 1.4 1.8 2 3 1.2 3.1-2.1 3.1-2 5.7.6 1.2 1.2 1.3 2.1.1 3.4-.6.6-1 1.6-1 2.4 0 1.4 1.2 1.8 2.4 2 2.8.3 2.7.4 2.7 3.1 0 3.1 0 3.2-3.2 3.6-1.2.2-2 .7-2 1.8 0 .7.4 1.6.8 2.2 1.6 2.1 1.6 2.1-.3 4l-.5.5c-2 2-2 2-4.1.3-2.1-1.6-3.4-1.2-3.8 1.4-.1.5 0 1.2-.3 1.6-.4.6-1 1-1.5 1.4-.1.1-.4 0-.7 0-3.7 0-3.7 0-4.5-3.6-.4-1.6-1.9-2.2-3.2-1.3-2.9 2-2.9 2-5.3-.5-1.7-1.8-1.7-1.8-.1-3.9.2-.2.6-.8 1.2-1.7zM28.4 25c0-3.8-2.9-6.8-6.7-6.8-3.9 0-6.9 2.9-6.9 6.8 0 3.8 2.9 6.8 6.7 6.8 3.9 0 6.9-2.9 6.9-6.8zM39.7 15.7c-.3-1.4-1.2-1.9-2.5-1.9-1.5 0-2.3-.5-2.2-2.3 0-1.6.6-2.1 2.1-2.2 2.5-.2 3-1 2.1-3.2-.8-2 0-3.5 2.1-3.7.5-.1 1.1.6 1.5 1 1.9 2.2 2.6 2.3 4.3 0 1.1-1.5 2-.8 3.2-.2 1.4.7 1 1.6.6 2.6-.2.6-.7 1.3-.6 1.9.2 1.2 1.1 1.7 2.3 1.7 1.4 0 2.3.4 2.3 2.2 0 1.7-.7 2.2-2.2 2.3-2.4.2-2.9 1-1.9 3.3.7 1.8-.3 3.6-2.2 3.6-.5 0-1.1-.6-1.5-1.1-1.8-2.2-2.4-2.2-4.2 0-1 1.3-3.5 1-4.2-.4-.2-.4.1-1.1.2-1.6.3-.7.6-1.4.8-2zm8.8-4c0-1.9-1.5-3.5-3.4-3.5s-3.5 1.5-3.5 3.5c0 1.9 1.5 3.4 3.3 3.4 1.9 0 3.5-1.5 3.6-3.4zM42 28.6c.3.6.6 1.2 1 1.7 1.7 2.1 2.5 2.2 4 0 1-1.4 1.8-1.2 3.2-.5 1.6.8 1.2 1.7.7 2.8-1 2.5-.6 3.2 2.1 3.4 1.6.1 2 .9 2 2.4 0 1.6-.6 2-2 2.2-2.7.2-3.1.9-2.1 3.4.6 1.6-.7 3.7-2.4 3.5-.5-.1-1.1-.7-1.5-1.2-1.7-2-2.4-2-4 0-1.2 1.4-3.1 1.4-4.2-.2-.2-.4 0-1.2.1-1.7 1.1-3.1.9-3.4-2.2-3.8-1.4-.2-1.7-.9-1.7-2.2 0-1.3.3-2.1 1.7-2.2h.5c2.3-.2 2.8-1 1.9-3.2-.8-1.9.3-3.7 2.2-3.8.3-.3.5-.4.7-.6zm6.5 9.7c0-1.9-1.6-3.5-3.5-3.5s-3.4 1.6-3.4 3.5 1.5 3.3 3.4 3.4c1.9.1 3.5-1.4 3.5-3.4z"/></g></svg><svg viewBox="0 0 60 50" width="16" height="13.33" id="decision-marketing-management-sciences" y="42"><style>.dst0{fill:#d1d3d3}</style><path class="dst0" d="M23.5 28.2c4-1.6 7.6-2.7 11-4.3 2.9-1.4 4-4.2 4.2-7.3 0-.6-.6-1.3-1.1-1.9-2.1-2.2-2.6-4.9-1.3-7.3 1.2-2.2 3.8-3.6 6.1-3.3 2.9.5 4.8 2.3 5.3 5.2.3 2.1-.5 3.8-1.9 5.3-.6.7-1.2 1.7-1.3 2.7-.5 5.8-3.3 10-8.7 12.4-2.4 1.1-5 1.8-7.5 2.7-1 .4-2.1.8-3 1.4-2.1 1.4-2.3 3.8-.6 5.6 2.5 2.5 2.5 6.2.1 8.6-2.4 2.4-6.1 2.4-8.5.1-2.4-2.4-2.5-6.2 0-8.6 1-1 1.4-1.9 1.4-3.3 0-7.6 0-15.3-.1-22.9 0-1-.6-2.2-1.3-3-2.4-2.6-2.5-6.3-.1-8.7 2.4-2.4 6.1-2.4 8.5-.1 2.4 2.4 2.6 6.2 0 8.6-1.1 1.1-1.4 2.1-1.4 3.5.2 4.8.2 9.5.2 14.6zM23.9 6c-.1-1.8-1.8-3.3-3.5-3.2-1.8.1-3.3 1.8-3.2 3.6.2 1.6 1.8 3.1 3.4 3.1 1.8-.1 3.4-1.8 3.3-3.5zM45 10.4C45 8.6 43.4 7 41.6 7c-1.7 0-3.3 1.5-3.4 3.2-.1 1.7 1.5 3.4 3.2 3.5 1.8 0 3.5-1.6 3.6-3.3zM20.7 47.3c1.8 0 3.4-1.7 3.3-3.5-.1-1.7-1.6-3.2-3.3-3.2-1.7 0-3.4 1.6-3.4 3.4-.1 1.7 1.6 3.3 3.4 3.3z" id="dLayer_1"/></svg><svg viewBox="0 0 148.1 179.34" width="13.21" height="16" id="document" y="56"><title>document</title><path d="M0 89.54v-82C0 .36.4 0 7.73 0 35.55 0 63.38-.1 91.2.15a12.75 12.75 0 0 1 8.2 3.45c15.68 16.1 31.1 32.46 46.47 48.86a8.36 8.36 0 0 1 2.13 5.21c.12 38.65.07 77.31.12 116 0 3.94-1.49 5.71-5.63 5.7q-68.48-.11-137 0c-5.12 0-5.52-2.94-5.51-6.83q.09-41.54.02-83zm7.71.12c0 25.33.1 50.65-.1 76 0 4.52 1.19 6.09 5.83 6.07q60.48-.21 121 0c4.36 0 6.07-1 6-5.86q-.32-50.23 0-100.47c0-4.39-1.29-5.82-5.64-5.75-12.66.21-25.33 0-38 .12-4.64.06-6.58-1.52-6.5-6.39.23-13.49-.06-27 .17-40.48.07-3.94-1.18-5.24-5.06-5.22Q49.2 7.8 13 7.62c-4.22 0-5.33 1.52-5.31 5.56.12 25.5.05 50.99.05 76.48zm92.15-74.17l-1.57.51c0 11.24-.08 22.49.19 33.72 0 .77 2.69 2.06 4.15 2.1 7.65.21 15.32.1 23 .1h7.58l.33-1.38z"/><path d="M73.1 86.34H38.68c-2.91 0-6.18.14-6.16-3.89 0-3.75 3.14-3.59 5.87-3.59h68.84c2.7 0 5.72-.27 5.57 3.77-.14 3.85-3 3.7-5.79 3.7q-16.95-.01-33.91.01zM73.09 112.34H38.67c-2.92 0-6.18.12-6.16-3.9 0-3.76 3.15-3.58 5.88-3.58h68.84c2.71 0 5.72-.26 5.57 3.77-.14 3.84-3 3.7-5.79 3.7q-16.96-.01-33.92.01zM72.73 137.34H38.3c-2.84 0-5.74-.19-5.78-3.81s3-3.89 5.75-3.9h68.86c2.66 0 5.71-.11 5.68 3.84s-2.84 3.86-5.64 3.85q-17.23-.01-34.44.02z"/></svg><svg viewBox="0 0 168.28 173.75" width="15.5" height="16" id="download" y="72"><title>download</title><path fill="#d1d3d3" d="M84.14 144.74l72.68-89.13H116.3V0H51.98v55.61H11.46l72.68 89.13zM0 154.64h168.28v19.11H0z"/></svg><svg viewBox="0 0 60 50" width="16" height="13.33" id="education-culture" y="88"><style>.gst0{fill:#d1d3d3}</style><g id="gLayer_1"><path class="gst0" d="M55 16.7c-.6.2-1.1.5-1.7.7-7.3 2.3-14.6 4.6-22 6.9-.8.3-1.8.2-2.7 0-4-1.2-7.9-2.4-11.8-3.7-1.3-.4-2.1-.1-2.5 1.1-.5 1.3-.9 2.6-1.2 4-.1.5.2 1.2.5 1.7.9 1.2.9 2.3.1 3.5-.3.5-.4 1.3-.4 1.9.2 2.4.5 4.9.9 7.3.2 1.2-.2 1.6-1.4 1.6-3.9.2-4 .1-3.3-3.7.3-1.8.6-3.7.7-5.5 0-.5-.2-1.1-.5-1.5-.9-1.2-.8-2.4.1-3.5.3-.3.6-.7.7-1.2.6-2.2 1.1-4.5 1.7-6.9-2.2-1-4.7-1.8-7.2-2.6v-.5c.5-.3 1-.6 1.6-.7 7.4-2.3 14.8-4.7 22.2-7 .7-.2 1.5-.3 2.2-.1 7.7 2.4 15.3 4.8 23 7.2.4.1.7.3 1.1.5-.1.2-.1.3-.1.5z"/><path class="gst0" d="M16.6 23.8c3.8 1.2 7.4 2.5 10.9 3.4 1.5.4 3.4.4 4.9 0 3.6-.9 7.2-2.2 11-3.4.2 2.4.6 4.6.3 6.8-.1 1-1.2 2.3-2.1 2.7-2.1 1-4.4 1.8-6.8 2.2-4.6.8-9.3.5-13.8-.9-1.1-.4-2.3-.9-3.3-1.6-1.3-.8-1.8-2-1.6-3.6.3-1.8.4-3.6.5-5.6z"/></g></svg><svg viewBox="0 0 179.16 179.02" width="16" height="15.99" id="energy-environment" y="102"><title>energy-environment</title><path d="M89.49 179C39.9 178.92-.21 138.93 0 89.42.23 37.24 43.76-.93 91.27 0a89.51 89.51 0 0 1-1.78 179zM9.28 89.54c0 44.2 36.17 80.6 80.21 80.66S169.91 134 170 89.83C170.09 45.31 133.91 9 89.53 9 45.35 9.07 9.29 45.25 9.28 89.54z"/><path d="M9.28 89.54C9.29 45.25 45.35 9.07 89.53 9c44.38 0 80.56 36.31 80.47 80.83-.09 44.15-36.45 80.44-80.52 80.37S9.26 133.74 9.28 89.54zM61.19 133l73.52-42.5L61.19 48v85z" fill="#fff"/><path d="M61.19 133V48l73.52 42.5z"/></svg><svg viewBox="0 0 60 50" width="16" height="13.33" id="financial-decision-making" y="118"><style>.ist0{fill:#d1d3d3}</style><g id="iLayer_1"><path class="ist0" d="M53.7 8.3H6.3c-.7 0-1.3.6-1.3 1.4v30.6c0 .7.6 1.3 1.3 1.3h47.3c.7 0 1.3-.6 1.3-1.3V9.7c.1-.8-.5-1.4-1.2-1.4zm-2 22.9c-3.7.2-6.7 3.3-6.7 7v.3H15v-.3c0-3.8-3-6.9-6.7-7V18.5c3.7-.2 6.7-3.2 6.7-7h30c0 3.7 3 6.8 6.7 7v12.7z"/><path class="ist0" d="M30 14.4c-4.6 0-8.3 4.7-8.3 10.6s3.7 10.6 8.3 10.6 8.3-4.7 8.3-10.6-3.7-10.6-8.3-10.6zm5.3 17.3H25.2v-2.5h3.5V22l-1.3 1.3-2.2-2.3 3.5-3.6h3.1v11.7h3.5v2.6z"/></g></svg><svg viewBox="0 0 60 50" width="16" height="13.33" id="health" y="132"><style>.jst0{fill:#d1d3d3}</style><g id="jLayer_1"><path class="jst0" d="M31.7 29.8c-1.6-5.6-3.2-10.9-4.7-16.3-.1-.4-.1-1-.4-1.3-.6-.6-1.4-1.6-2.1-1.6-.7 0-1.7 1-1.9 1.7-1 3.3-1.9 6.6-2.6 10-.4 2-1.2 2.8-3.2 2.6-2.3-.2-4.7-.2-7 0-1.7.1-2.4-.6-3.1-1.9-3.9-7.5-.8-16.4 6.5-18.6 5.5-1.7 10.4-.4 14.5 3.5 1.8 1.6 2.9 1.6 4.6 0 4.4-4.1 9.5-5.3 15.2-3.2 8.1 3 9.3 13.4 5 19.5-.3.4-1 .6-1.5.7-.7.1-1.5-.1-2.2.1-4.7.8-8.1-.4-9.5-5.5-.2-.7-1.6-1.7-2.3-1.6-.7.1-1.6 1.2-2 2.1-1.1 3-1.9 6.1-2.9 9.2.1.1-.1.2-.4.6z"/><path class="jst0" d="M37.8 25.3c2.3 6 7.2 2.3 10.6 3.8-2 1.9-3.9 3.9-5.8 5.9-3.5 3.5-7.1 6.9-10.7 10.3-1 1-2 1.6-3.3.4-5.7-5.5-11.3-10.9-17.5-16.9 3.2 0 5.8-.1 8.5 0 2.4.2 3.4-.9 3.8-3.1.3-1.6.8-3.2 1.3-5.4 1.5 5.2 2.9 9.9 4.2 14.6.2.7.2 1.6.6 2.1.6.9 1.5 1.7 2.2 2.5.8-.8 1.9-1.4 2.3-2.4 1.1-3 1.9-6.1 2.9-9.2.2-.6.4-1.3.9-2.6z"/></g></svg><svg viewBox="0 0 60 50" width="16" height="13.33" id="justice-ethics" y="146"><style>.kst0{fill:#d1d3d3}</style><g id="kLayer_1"><path class="kst0" d="M15.4 19.6v16H14c-.7 0-1.3.6-1.3 1.4v1.4h34.7v-.9c0-1-.8-1.9-1.8-1.9h-.9v-16h-5.4v16h-2.6v-16h-5.4v16h-2.6v-16h-5.4v16h-2.6v-16h-5.3zM48 39.6H11.5c-.8 0-1.5.7-1.5 1.6v2.5h40v-1.9c0-1.3-.9-2.2-2-2.2zM30 6.4l-20 8v2.7h2.7c.2.7.9 1.3 1.7 1.3H46c.7 0 1.3-.6 1.3-1.3H50v-2.7l-20-8z"/></g></svg><svg viewBox="0 0 128.37 171.1" width="12" height="16" id="library" y="160"><title>library</title><rect x="89.42" width="38.95" height="171.1" rx="2.02" ry="2.02" fill="#d1d3d3"/><rect x="95.14" y="36.43" width="27.51" height="6.56" rx=".38" ry=".38" fill="#fff"/><rect x="95.14" y="44.74" width="27.51" height="6.56" rx=".38" ry=".38" fill="#fff"/><rect x="95.14" y="133.35" width="27.51" height="6.56" rx=".38" ry=".38" fill="#fff"/><rect x="44.71" width="38.95" height="171.1" rx="2.02" ry="2.02" fill="#d1d3d3"/><rect width="38.95" height="171.1" rx="2.02" ry="2.02" fill="#d1d3d3"/><rect x="50.43" y="36.43" width="27.51" height="6.56" rx=".38" ry=".38" fill="#fff"/><rect x="50.43" y="44.74" width="27.51" height="6.56" rx=".38" ry=".38" fill="#fff"/><rect x="50.43" y="133.35" width="27.51" height="6.56" rx=".38" ry=".38" fill="#fff"/><rect x="5.72" y="36.37" width="27.51" height="6.56" rx=".38" ry=".38" fill="#fff"/><rect x="5.72" y="44.68" width="27.51" height="6.56" rx=".38" ry=".38" fill="#fff"/><rect x="5.72" y="133.29" width="27.51" height="6.56" rx=".38" ry=".38" fill="#fff"/></svg><svg viewBox="0 0 128.37 171.1" width="12" height="16" id="library-filled" y="176"><title>library-filled</title><rect x="89.42" width="38.95" height="171.1" rx="2.02" ry="2.02" fill="#58595b"/><rect x="95.14" y="36.43" width="27.51" height="6.56" rx=".38" ry=".38" fill="#fff"/><rect x="95.14" y="44.74" width="27.51" height="6.56" rx=".38" ry=".38" fill="#fff"/><rect x="95.14" y="133.35" width="27.51" height="6.56" rx=".38" ry=".38" fill="#fff"/><rect x="44.71" width="38.95" height="171.1" rx="2.02" ry="2.02" fill="#58595b"/><rect width="38.95" height="171.1" rx="2.02" ry="2.02" fill="#58595b"/><rect x="50.43" y="36.43" width="27.51" height="6.56" rx=".38" ry=".38" fill="#fff"/><rect x="50.43" y="44.74" width="27.51" height="6.56" rx=".38" ry=".38" fill="#fff"/><rect x="50.43" y="133.35" width="27.51" height="6.56" rx=".38" ry=".38" fill="#fff"/><rect x="5.72" y="36.37" width="27.51" height="6.56" rx=".38" ry=".38" fill="#fff"/><rect x="5.72" y="44.68" width="27.51" height="6.56" rx=".38" ry=".38" fill="#fff"/><rect x="5.72" y="133.29" width="27.51" height="6.56" rx=".38" ry=".38" fill="#fff"/></svg><svg viewBox="0 0 60 50" width="16" height="13.33" id="management-labor" y="192"><style>.nst0{fill:#d1d3d3}</style><g id="nLayer_1"><path class="nst0" d="M30.2 46.1h-9.9c-4.8-.1-7.3-2.7-6.7-7.5.3-2.7 1-5.3 1.9-7.8.4-1.1 1.4-2.1 2.4-2.9 1.6-1.1 3.5-1.6 5.6-.2 4.3 3.1 8.8 3 13.2.1 2.3-1.5 4.5-1.3 6.4.6.7.7 1.5 1.6 1.7 2.5.7 3 1.6 6.1 1.8 9.2.2 3.8-2.4 5.9-6.5 6h-9.9z"/><path class="nst0" d="M39.1 18.8c.1 4.8-4 8.9-8.9 9-4.8.1-8.9-4-9-8.9-.1-4.8 4-8.9 8.9-9 4.7 0 8.9 4.1 9 8.9zM39.7 24.6c.5-2.2 1-4.3 1.5-6.7 2.8.6 5.7-.2 8.4-1.5.4-.2 1.8.6 1.9 1.2.5 2.4.9 4.9.9 7.4 0 .8-1.2 2.1-2 2.4-2.3.8-4.6 1.4-6.8-.8-1-1.1-2.6-1.4-3.9-2zM20.5 24.4c-1.6 1-3.3 2-4.9 2.9-2.1 1.2-4.1.6-6.1-.2-1.6-.6-2-2-1.9-3.6.2-1.9.4-3.9.9-5.8.4-1.5 1.4-2.1 3-1.2 2.4 1.3 5 1.7 7.5 1.2.5 2.4 1 4.7 1.5 6.7zM22.4 9.8c0 3.1-2.8 6-5.9 5.9-3.2 0-6-2.8-5.9-6 .1-3.1 2.7-5.8 5.8-5.8 3.1-.1 5.9 2.7 6 5.9zM49.7 9.8c0 3.2-2.9 5.9-6 5.9-3.2-.1-5.9-3-5.8-6 .1-3.1 2.8-5.8 5.9-5.8 3.1 0 5.9 2.8 5.9 5.9z"/></g></svg><svg viewBox="0 0 60 50" width="16" height="13.33" id="organizational-science" y="206"><style>.ost0{fill:#d1d3d3}</style><g id="oLayer_1"><path class="ost0" d="M12 15.9H8.2C6 15.8 5 14.9 5 12.7V8.4c.1-2 1.1-3 3-3 2.7-.1 5.4-.1 8 0 1.9.1 2.9 1 3 2.9.1 1.5.1 3.1 0 4.6-.1 1.9-1.1 2.8-2.9 2.9h-.4c-1.2.1-2.4.1-3.7.1zM30.1 5.4c1.3 0 2.6-.1 3.9 0 2 .1 2.9 1.1 3 3 .1 1.5.1 3 0 4.5-.1 2-1.1 2.9-3.1 3-2.6.1-5.2.1-7.9 0-2.1 0-3-1.1-3.1-3.1-.1-1.4-.1-2.9 0-4.3.1-2 1.1-3 3.2-3.1h4zM48 5.4c1.3 0 2.6-.1 3.9 0 2 .1 2.9 1.1 3 3 .1 1.4.1 2.9 0 4.3-.1 2.1-1 3.1-3.1 3.1-2.6.1-5.2.1-7.9 0-2.1 0-3-1.1-3.1-3.1-.1-1.4 0-2.7 0-4.1.2-2.2 1.2-3.1 3.4-3.2H48zM12.1 30.3H8.2c-2.1-.1-3.1-1-3.1-3.1-.1-1.5-.1-2.9-.1-4.3.1-2.1 1.1-3 3.1-3.1 2.6-.1 5.2-.1 7.9 0 2 .1 3 1 3.1 3 .1 1.5.1 3 0 4.5-.1 2-1.1 2.9-3 3h-4zM29.9 30.3h-3.8C24 30.2 23 29.2 23 27c0-1.4-.1-2.7 0-4.1.1-2.1 1-3.1 3.1-3.1 2.6-.1 5.2-.1 7.9 0 2.1.1 3 1.1 3.1 3.1.1 1.4.1 2.9 0 4.3-.1 2-1.1 2.9-3 3-1.5.1-2.8.1-4.2.1zM47.9 19.8h3.8c2.2.1 3.2 1 3.3 3.2.1 1.4.1 2.9 0 4.3-.1 2-1.1 3-3 3-2.7.1-5.4.1-8 0-1.9-.1-2.9-1-3-2.9-.1-1.5-.1-3.1 0-4.6.1-1.9 1.1-2.8 2.9-2.9 1.3-.2 2.7-.1 4-.1zM12 44.6H8.2C6 44.5 5 43.6 5 41.4v-4.3c.1-2 1.1-3 3-3 2.6-.1 5.2-.1 7.9 0 2.1 0 3.1 1 3.1 3.1.1 1.4.1 2.9 0 4.3-.1 2.1-1.1 3-3.1 3.1H12zM30 44.6h-3.9c-2.1-.1-3-1.1-3.1-3.1-.1-1.4 0-2.7 0-4.1.1-2.2 1-3.2 3.2-3.2 2.6-.1 5.1-.1 7.7 0 2.2 0 3.1 1 3.2 3.2v3.9c-.1 2.3-1 3.3-3.3 3.3H30zM47.8 44.6H44c-2.1-.1-3.1-1-3.1-3.1-.1-1.4-.1-2.9 0-4.3.1-2 1-3 3-3.1 2.7-.1 5.4-.1 8 0 2 .1 2.9 1 3 3 .1 1.5.1 3 0 4.5-.1 2-1.1 2.9-3.1 3h-4z"/></g></svg><svg viewBox="0 0 60 50" width="16" height="13.33" id="political-science" y="220"><style>.pst0{fill:#d1d3d3}</style><path class="pst0" d="M12.6 28.3H9.8c-2.9-.1-4.7-1.8-4.8-4.7-.1-1.5 0-3 0-4.5.1-3.1 1.8-4.9 5-4.9 3.7 0 7.3-.1 11 0 8.1.3 15.2-2.4 21.7-6.7 1.4-.9 2.7-1.9 4.1-3 1.9-1.5 3.8-.9 4.5 1.5.2.7.3 1.4.3 2.1v6.5c0 1.7-.3 3.4 2 4.1.7.2 1.5 1.9 1.3 2.8-.2 1.1-1.1 2.3-2.1 2.8-1.1.6-1.4 1.1-1.3 2.1.1 2.7 0 5.4 0 8.1 0 .8-.1 1.6-.4 2.3-.7 2.1-2.6 2.6-4.3 1.3-5.5-4.3-11.4-7.7-18.3-9.2-3.8-.8-4.8-.5-6.4 2.2-.4.7-.8 2-.4 2.6 1.4 2.4-.9 5.7 1.9 7.8.9.7 1.6 1.5 2.4 2.3-1.8 2.4-5.2 3.2-8.8 2.1-1.4-.4-2.4-1.1-2.8-2.7-.6-2.3-1.6-4.4-1.9-6.7-.2-2.6.1-5.3.1-8.2zm13.9-3.1c8.1 1 15 4.7 21.6 9.6V7.6c-6.6 5-13.5 8.6-21.6 9.7v7.9z" id="pLayer_1"/></svg><svg viewBox="0 0 60 50" width="16" height="13.33" id="social-psychology" y="234"><style>.qst0{fill:#d1d3d3}</style><path class="qst0" d="M39.3 17c-.3 2-.5 3.9-.7 5.8-.1 1.5-.3 3-.2 4.4.2 3.6 3.3 5.2 6.4 3.3 2-1.2 4-2.4 6.5-1.7 2.4.7 3.3 2.6 3.6 4.8.3 2.2-.2 4.2-2 5.5-1.7 1.3-3.7 1.1-5.5.1-1-.5-1.9-1.6-2.9-1.8-1.4-.3-3.1-.5-4.4 0-1.6.6-1.6 2.4-1.4 3.9.2 2 .6 4 .9 6.3-3.8.3-7.3.7-10.9.8-3.2 0-4.4-2.4-2.9-5.2.4-.9 1.1-1.6 1.6-2.4 1.5-2.4 1.5-5-.2-6.8-1.8-2-5.6-2.5-8.3-1-2.3 1.3-3.3 3.6-2.4 6.3.4 1.3 1.2 2.6 1.9 3.8 1.5 2.6.3 5.3-2.6 5.3-3.6.2-7.2-.2-10.8-.4V17.2c1.9.2 3.8.5 5.7.7 1.5.1 3 .3 4.4.2 3.8-.2 5.3-3.3 3.3-6.5-1.2-1.9-2.2-3.8-1.7-6.1.6-2.5 2.5-3.5 4.8-3.8 2.2-.3 4.3.2 5.7 2.1 1.3 1.8 1 3.8-.1 5.7-.5.9-1.3 1.8-1.8 2.7-1.5 2.9-.3 5.4 2.9 5.6 3.2.2 6.4-.3 9.6-.5.4-.2.9-.3 1.5-.3z" id="qLayer_1"/></svg><svg viewBox="0 0 60 50" width="16" height="13.33" id="sociology" y="248"><style>.rst0{fill:#d1d3d3}</style><g id="rLayer_1"><path class="rst0" d="M22.1 34c0-3.8.1-7.6-.1-11.4 0-.9-.5-2.1-1.1-2.8-2.4-2.6-5-5-7.5-7.6-1.2-1.2-1.8-2.5-.7-4.1 1-1.5 2.9-1.6 4.5 0 2 1.9 3.8 3.9 5.9 5.8.6.6 1.6.7 2.4 1 .2.1.4 0 .6 0 3.1 0 6.6.8 9.3-.3 2.7-1.1 4.7-4 6.9-6.2 1.3-1.2 2.6-2 4.2-.9 1.5 1 1.6 2.9.1 4.5-2.4 2.5-4.7 4.9-7.2 7.2-1.2 1.2-1.6 2.4-1.6 4 .1 7.5 0 15 0 22.4 0 2.7-1.1 4.2-3.2 4.3-2 .1-3.4-1.1-3.4-3.3-.1-3.3 0-6.7 0-10 0-.9.3-2-1.2-2s-1.3 1-1.3 1.9v9.6c0 2.5-1.1 3.7-3.1 3.8-2.1 0-3.4-1.3-3.4-3.8-.1-4-.1-8-.1-12.1z"/><path class="rst0" d="M30 13.5c-3.9 0-6.7-2.8-6.7-6.7 0-4 2.8-6.8 6.8-6.8 3.8 0 6.7 2.9 6.6 6.8 0 3.8-2.8 6.6-6.7 6.7z"/></g></svg><svg viewBox="0 0 60 50" width="16" height="13.33" id="technology-innovation" y="262"><style>.sst0{fill:#d1d3d3}</style><path class="sst0" d="M48.5 40.6c-.3-.8-.8-1.5-1.2-2.2l-11.4-18c-.4-.6-.9-1.4-.9-2.1-.1-3.3 0-6.7 0-10.1h1.6c.9 0 1.6-.7 1.6-1.6S37.4 5 36.6 5H23.4c-.9 0-1.6.7-1.6 1.6s.7 1.6 1.6 1.6h1.7c0 2.8.1 5.6-.1 8.3-.1 1.5-.5 3-1.2 4.3C20 27 15.9 33.2 12 39.5c-1.9 3.1-.8 5.1 2.8 5.4H44c.8 0 1.7-.1 2.5-.3 2.1-.4 2.9-1.9 2-4zm-28.1-8.9c1.9-3.1 3.5-5.9 5.4-8.5 1.8-2.5 2.6-5.1 2.3-8.2-.2-2.2 0-4.4 0-6.8h3.6c0 2.6.1 5.2 0 7.8-.1 2.3.4 4.3 1.8 6.3 2.1 2.9 3.9 6.1 6 9.4H20.4z" id="sLayer_1"/></svg><svg viewBox="0 0 179.16 179.02" width="16" height="15.99" id="video" y="276"><title>video</title><path d="M89.49 179C39.9 178.92-.21 138.93 0 89.42.23 37.24 43.76-.93 91.27 0a89.51 89.51 0 0 1-1.78 179zM9.28 89.54c0 44.2 36.17 80.6 80.21 80.66S169.91 134 170 89.83C170.09 45.31 133.91 9 89.53 9 45.35 9.07 9.29 45.25 9.28 89.54z"/><path d="M61.19 133V48l73.52 42.5z"/></svg></svg>