<svg width="16" height="196" viewBox="0 0 16 196" xmlns="http://www.w3.org/2000/svg" xmlns:xlink="http://www.w3.org/1999/xlink"><svg viewBox="0 0 60 50" width="16" height="13.33" id="behavioral-economics"><style>.ast0{fill:#d1d3d3}</style><g id="aLayer_1"><path class="ast0" d="M5 43.7V6.3h2.8v34.5H55v2.9H5z"/><path class="ast0" d="M42.9 9.4h5.8v28h-5.8v-28zM29.8 37.4H24V12.6h5.8v24.8zM39.3 37.4h-5.9V18.9h5.9v18.5zM14.5 37.4V25.3h5.9v12.1h-5.9z"/></g></svg><svg viewBox="0 0 60 50" width="16" height="13.33" id="cognitive" y="14"><style>.bst0{fill:#d1d3d3}</style><g id="bLayer_1"><path class="bst0" d="M10.8 30.4c-.8-.7-1.5-1.5-2.4-2-.6-.3-1.4-.3-2.1-.4-.9-.1-1.4-.6-1.3-1.6v-.5c0-3.8 0-3.8 3.7-4.6 1.4-.3 2.1-1.8 1.3-3-.1-.1-.1-.2-.2-.3-.6-.9-1.8-2.3-1.5-2.7.9-1.5 2.3-2.7 3.7-3.8.3-.2 1.3.5 1.9.8.9.5 1.6 1.9 2.9 1 .6-.4 1-1 1.3-1.6.3-.6.2-1.3.4-2 0-.2 0-.4.1-.5 1.2-2.1 3.2-.7 4.9-.9.4-.1 1.2.8 1.5 1.3.3.7.2 1.5.4 2.3.3 1.4 1.8 2 3 1.2 3.1-2.1 3.1-2 5.7.6 1.2 1.2 1.3 2.1.1 3.4-.6.6-1 1.6-1 2.4 0 1.4 1.2 1.8 2.4 2 2.8.3 2.7.4 2.7 3.1 0 3.1 0 3.2-3.2 3.6-1.2.2-2 .7-2 1.8 0 .7.4 1.6.8 2.2 1.6 2.1 1.6 2.1-.3 4l-.5.5c-2 2-2 2-4.1.3-2.1-1.6-3.4-1.2-3.8 1.4-.1.5 0 1.2-.3 1.6-.4.6-1 1-1.5 1.4-.1.1-.4 0-.7 0-3.7 0-3.7 0-4.5-3.6-.4-1.6-1.9-2.2-3.2-1.3-2.9 2-2.9 2-5.3-.5-1.7-1.8-1.7-1.8-.1-3.9.2-.2.6-.8 1.2-1.7zM28.4 25c0-3.8-2.9-6.8-6.7-6.8-3.9 0-6.9 2.9-6.9 6.8 0 3.8 2.9 6.8 6.7 6.8 3.9 0 6.9-2.9 6.9-6.8zM39.7 15.7c-.3-1.4-1.2-1.9-2.5-1.9-1.5 0-2.3-.5-2.2-2.3 0-1.6.6-2.1 2.1-2.2 2.5-.2 3-1 2.1-3.2-.8-2 0-3.5 2.1-3.7.5-.1 1.1.6 1.5 1 1.9 2.2 2.6 2.3 4.3 0 1.1-1.5 2-.8 3.2-.2 1.4.7 1 1.6.6 2.6-.2.6-.7 1.3-.6 1.9.2 1.2 1.1 1.7 2.3 1.7 1.4 0 2.3.4 2.3 2.2 0 1.7-.7 2.2-2.2 2.3-2.4.2-2.9 1-1.9 3.3.7 1.8-.3 3.6-2.2 3.6-.5 0-1.1-.6-1.5-1.1-1.8-2.2-2.4-2.2-4.2 0-1 1.3-3.5 1-4.2-.4-.2-.4.1-1.1.2-1.6.3-.7.6-1.4.8-2zm8.8-4c0-1.9-1.5-3.5-3.4-3.5s-3.5 1.5-3.5 3.5c0 1.9 1.5 3.4 3.3 3.4 1.9 0 3.5-1.5 3.6-3.4zM42 28.6c.3.6.6 1.2 1 1.7 1.7 2.1 2.5 2.2 4 0 1-1.4 1.8-1.2 3.2-.5 1.6.8 1.2 1.7.7 2.8-1 2.5-.6 3.2 2.1 3.4 1.6.1 2 .9 2 2.4 0 1.6-.6 2-2 2.2-2.7.2-3.1.9-2.1 3.4.6 1.6-.7 3.7-2.4 3.5-.5-.1-1.1-.7-1.5-1.2-1.7-2-2.4-2-4 0-1.2 1.4-3.1 1.4-4.2-.2-.2-.4 0-1.2.1-1.7 1.1-3.1.9-3.4-2.2-3.8-1.4-.2-1.7-.9-1.7-2.2 0-1.3.3-2.1 1.7-2.2h.5c2.3-.2 2.8-1 1.9-3.2-.8-1.9.3-3.7 2.2-3.8.3-.3.5-.4.7-.6zm6.5 9.7c0-1.9-1.6-3.5-3.5-3.5s-3.4 1.6-3.4 3.5 1.5 3.3 3.4 3.4c1.9.1 3.5-1.4 3.5-3.4z"/></g></svg><svg viewBox="0 0 60 50" width="16" height="13.33" id="decision" y="28"><style>.cst0{fill:#d1d3d3}</style><path class="cst0" d="M23.5 28.2c4-1.6 7.6-2.7 11-4.3 2.9-1.4 4-4.2 4.2-7.3 0-.6-.6-1.3-1.1-1.9-2.1-2.2-2.6-4.9-1.3-7.3 1.2-2.2 3.8-3.6 6.1-3.3 2.9.5 4.8 2.3 5.3 5.2.3 2.1-.5 3.8-1.9 5.3-.6.7-1.2 1.7-1.3 2.7-.5 5.8-3.3 10-8.7 12.4-2.4 1.1-5 1.8-7.5 2.7-1 .4-2.1.8-3 1.4-2.1 1.4-2.3 3.8-.6 5.6 2.5 2.5 2.5 6.2.1 8.6-2.4 2.4-6.1 2.4-8.5.1-2.4-2.4-2.5-6.2 0-8.6 1-1 1.4-1.9 1.4-3.3 0-7.6 0-15.3-.1-22.9 0-1-.6-2.2-1.3-3-2.4-2.6-2.5-6.3-.1-8.7 2.4-2.4 6.1-2.4 8.5-.1 2.4 2.4 2.6 6.2 0 8.6-1.1 1.1-1.4 2.1-1.4 3.5.2 4.8.2 9.5.2 14.6zM23.9 6c-.1-1.8-1.8-3.3-3.5-3.2-1.8.1-3.3 1.8-3.2 3.6.2 1.6 1.8 3.1 3.4 3.1 1.8-.1 3.4-1.8 3.3-3.5zM45 10.4C45 8.6 43.4 7 41.6 7c-1.7 0-3.3 1.5-3.4 3.2-.1 1.7 1.5 3.4 3.2 3.5 1.8 0 3.5-1.6 3.6-3.3zM20.7 47.3c1.8 0 3.4-1.7 3.3-3.5-.1-1.7-1.6-3.2-3.3-3.2-1.7 0-3.4 1.6-3.4 3.4-.1 1.7 1.6 3.3 3.4 3.3z" id="cLayer_1"/></svg><svg viewBox="0 0 60 50" width="16" height="13.33" id="education" y="42"><style>.dst0{fill:#d1d3d3}</style><g id="dLayer_1"><path class="dst0" d="M55 16.7c-.6.2-1.1.5-1.7.7-7.3 2.3-14.6 4.6-22 6.9-.8.3-1.8.2-2.7 0-4-1.2-7.9-2.4-11.8-3.7-1.3-.4-2.1-.1-2.5 1.1-.5 1.3-.9 2.6-1.2 4-.1.5.2 1.2.5 1.7.9 1.2.9 2.3.1 3.5-.3.5-.4 1.3-.4 1.9.2 2.4.5 4.9.9 7.3.2 1.2-.2 1.6-1.4 1.6-3.9.2-4 .1-3.3-3.7.3-1.8.6-3.7.7-5.5 0-.5-.2-1.1-.5-1.5-.9-1.2-.8-2.4.1-3.5.3-.3.6-.7.7-1.2.6-2.2 1.1-4.5 1.7-6.9-2.2-1-4.7-1.8-7.2-2.6v-.5c.5-.3 1-.6 1.6-.7 7.4-2.3 14.8-4.7 22.2-7 .7-.2 1.5-.3 2.2-.1 7.7 2.4 15.3 4.8 23 7.2.4.1.7.3 1.1.5-.1.2-.1.3-.1.5z"/><path class="dst0" d="M16.6 23.8c3.8 1.2 7.4 2.5 10.9 3.4 1.5.4 3.4.4 4.9 0 3.6-.9 7.2-2.2 11-3.4.2 2.4.6 4.6.3 6.8-.1 1-1.2 2.3-2.1 2.7-2.1 1-4.4 1.8-6.8 2.2-4.6.8-9.3.5-13.8-.9-1.1-.4-2.3-.9-3.3-1.6-1.3-.8-1.8-2-1.6-3.6.3-1.8.4-3.6.5-5.6z"/></g></svg><svg viewBox="0 0 60 50" width="16" height="13.33" id="energy" y="56"><style>.est0{fill:#d1d3d3}</style><path class="est0" d="M30 45c-10.9.1-20.1-9.2-20-20.1C10.1 14 19.1 5.1 30 5c10.9-.1 20.1 9.2 20 20.1C49.9 36 40.9 44.9 30 45zm3.4-28c-.8-.8-1.3-1.5-2.1-1.8-.9-.4-2.6 0-2.7-1.5 0-1.5 1.8-1.5 2.6-2.4.2-.2.7-.1 1-.2.5-.2.5-.7.4-1.1-.1-.5-.6-.8-.9-.5-1.2 1-2 .1-2.9-.6-.5-.4-1.4-.7-1.3.3.1 1.7-1.4 1-1.5.9-1-1.4-1.8-.3-2.9-.1-3.1.7-4.8 2.9-6.7 5-.4.4-1 1-.4 1.4 2 1.3 1.3 3.3 1.4 5.1.1 1.1.7 2.1 1.5 2.7 1.7 1.4 1.8 4.3 4.5 4.7.2 0 .5.5.5.9.4 1.7 1.7 2.2 3.1 2.4 1.6.3 2.7 1.2 3.9 2.1.5.4 1 .9 1.6 1.3.4.3 1-.3.9-.3-1.7-.6-.3-3-2.1-3.5-.5-.1-.7-.4-.6-.9.4-1.8-.4-1.4-1.3-.7-1.4 1.1-1.9.2-2.1-1-.4-2.1 1.8-3.9 3.7-2.8 1.9 1.1 2.2 2 2.5-1.1.2-1.8 2.1-4.2 4.4-5.3.4-.2.9-.4.8-.9-.2-1.2.4-1.3 1.4-1.4.7 0 1.5-.4 1.6-1.1.1-.7-.9-.9-1.1-1.3-.9-1.9-3.2-1.4-4.4-2.7-.4-.4-1.3-.8-2-.4-.8.4-.7 1.3-.4 1.9.5 1.3-.7 1.7-.4 2.9zm-.6 23.1c-.3 1.4.3 1.7 1.4 1.4 2.7-.7 5.2-2 7.2-4 .3-.3.7-.5.5-1-.8-2-6.7-3.2-7.8-1.4-.8 1.5-.6 3.4-1.3 5z" id="eLayer_1"/></svg><svg viewBox="0 0 60 50" width="16" height="13.33" id="financial" y="70"><style>.fst0{fill:#d1d3d3}</style><g id="fLayer_1"><path class="fst0" d="M53.7 8.3H6.3c-.7 0-1.3.6-1.3 1.4v30.6c0 .7.6 1.3 1.3 1.3h47.3c.7 0 1.3-.6 1.3-1.3V9.7c.1-.8-.5-1.4-1.2-1.4zm-2 22.9c-3.7.2-6.7 3.3-6.7 7v.3H15v-.3c0-3.8-3-6.9-6.7-7V18.5c3.7-.2 6.7-3.2 6.7-7h30c0 3.7 3 6.8 6.7 7v12.7z"/><path class="fst0" d="M30 14.4c-4.6 0-8.3 4.7-8.3 10.6s3.7 10.6 8.3 10.6 8.3-4.7 8.3-10.6-3.7-10.6-8.3-10.6zm5.3 17.3H25.2v-2.5h3.5V22l-1.3 1.3-2.2-2.3 3.5-3.6h3.1v11.7h3.5v2.6z"/></g></svg><svg viewBox="0 0 60 50" width="16" height="13.33" id="health" y="84"><style>.gst0{fill:#d1d3d3}</style><g id="gLayer_1"><path class="gst0" d="M31.7 29.8c-1.6-5.6-3.2-10.9-4.7-16.3-.1-.4-.1-1-.4-1.3-.6-.6-1.4-1.6-2.1-1.6-.7 0-1.7 1-1.9 1.7-1 3.3-1.9 6.6-2.6 10-.4 2-1.2 2.8-3.2 2.6-2.3-.2-4.7-.2-7 0-1.7.1-2.4-.6-3.1-1.9-3.9-7.5-.8-16.4 6.5-18.6 5.5-1.7 10.4-.4 14.5 3.5 1.8 1.6 2.9 1.6 4.6 0 4.4-4.1 9.5-5.3 15.2-3.2 8.1 3 9.3 13.4 5 19.5-.3.4-1 .6-1.5.7-.7.1-1.5-.1-2.2.1-4.7.8-8.1-.4-9.5-5.5-.2-.7-1.6-1.7-2.3-1.6-.7.1-1.6 1.2-2 2.1-1.1 3-1.9 6.1-2.9 9.2.1.1-.1.2-.4.6z"/><path class="gst0" d="M37.8 25.3c2.3 6 7.2 2.3 10.6 3.8-2 1.9-3.9 3.9-5.8 5.9-3.5 3.5-7.1 6.9-10.7 10.3-1 1-2 1.6-3.3.4-5.7-5.5-11.3-10.9-17.5-16.9 3.2 0 5.8-.1 8.5 0 2.4.2 3.4-.9 3.8-3.1.3-1.6.8-3.2 1.3-5.4 1.5 5.2 2.9 9.9 4.2 14.6.2.7.2 1.6.6 2.1.6.9 1.5 1.7 2.2 2.5.8-.8 1.9-1.4 2.3-2.4 1.1-3 1.9-6.1 2.9-9.2.2-.6.4-1.3.9-2.6z"/></g></svg><svg viewBox="0 0 60 50" width="16" height="13.33" id="justice" y="98"><style>.hst0{fill:#d1d3d3}</style><g id="hLayer_1"><path class="hst0" d="M15.4 19.6v16H14c-.7 0-1.3.6-1.3 1.4v1.4h34.7v-.9c0-1-.8-1.9-1.8-1.9h-.9v-16h-5.4v16h-2.6v-16h-5.4v16h-2.6v-16h-5.4v16h-2.6v-16h-5.3zM48 39.6H11.5c-.8 0-1.5.7-1.5 1.6v2.5h40v-1.9c0-1.3-.9-2.2-2-2.2zM30 6.4l-20 8v2.7h2.7c.2.7.9 1.3 1.7 1.3H46c.7 0 1.3-.6 1.3-1.3H50v-2.7l-20-8z"/></g></svg><svg viewBox="0 0 60 50" width="16" height="13.33" id="management" y="112"><style>.ist0{fill:#d1d3d3}</style><g id="iLayer_1"><path class="ist0" d="M30.2 46.1h-9.9c-4.8-.1-7.3-2.7-6.7-7.5.3-2.7 1-5.3 1.9-7.8.4-1.1 1.4-2.1 2.4-2.9 1.6-1.1 3.5-1.6 5.6-.2 4.3 3.1 8.8 3 13.2.1 2.3-1.5 4.5-1.3 6.4.6.7.7 1.5 1.6 1.7 2.5.7 3 1.6 6.1 1.8 9.2.2 3.8-2.4 5.9-6.5 6h-9.9z"/><path class="ist0" d="M39.1 18.8c.1 4.8-4 8.9-8.9 9-4.8.1-8.9-4-9-8.9-.1-4.8 4-8.9 8.9-9 4.7 0 8.9 4.1 9 8.9zM39.7 24.6c.5-2.2 1-4.3 1.5-6.7 2.8.6 5.7-.2 8.4-1.5.4-.2 1.8.6 1.9 1.2.5 2.4.9 4.9.9 7.4 0 .8-1.2 2.1-2 2.4-2.3.8-4.6 1.4-6.8-.8-1-1.1-2.6-1.4-3.9-2zM20.5 24.4c-1.6 1-3.3 2-4.9 2.9-2.1 1.2-4.1.6-6.1-.2-1.6-.6-2-2-1.9-3.6.2-1.9.4-3.9.9-5.8.4-1.5 1.4-2.1 3-1.2 2.4 1.3 5 1.7 7.5 1.2.5 2.4 1 4.7 1.5 6.7zM22.4 9.8c0 3.1-2.8 6-5.9 5.9-3.2 0-6-2.8-5.9-6 .1-3.1 2.7-5.8 5.8-5.8 3.1-.1 5.9 2.7 6 5.9zM49.7 9.8c0 3.2-2.9 5.9-6 5.9-3.2-.1-5.9-3-5.8-6 .1-3.1 2.8-5.8 5.9-5.8 3.1 0 5.9 2.8 5.9 5.9z"/></g></svg><svg viewBox="0 0 60 50" width="16" height="13.33" id="organizational-science" y="126"><style>.jst0{fill:#d1d3d3}</style><g id="jLayer_1"><path class="jst0" d="M12 15.9H8.2C6 15.8 5 14.9 5 12.7V8.4c.1-2 1.1-3 3-3 2.7-.1 5.4-.1 8 0 1.9.1 2.9 1 3 2.9.1 1.5.1 3.1 0 4.6-.1 1.9-1.1 2.8-2.9 2.9h-.4c-1.2.1-2.4.1-3.7.1zM30.1 5.4c1.3 0 2.6-.1 3.9 0 2 .1 2.9 1.1 3 3 .1 1.5.1 3 0 4.5-.1 2-1.1 2.9-3.1 3-2.6.1-5.2.1-7.9 0-2.1 0-3-1.1-3.1-3.1-.1-1.4-.1-2.9 0-4.3.1-2 1.1-3 3.2-3.1h4zM48 5.4c1.3 0 2.6-.1 3.9 0 2 .1 2.9 1.1 3 3 .1 1.4.1 2.9 0 4.3-.1 2.1-1 3.1-3.1 3.1-2.6.1-5.2.1-7.9 0-2.1 0-3-1.1-3.1-3.1-.1-1.4 0-2.7 0-4.1.2-2.2 1.2-3.1 3.4-3.2H48zM12.1 30.3H8.2c-2.1-.1-3.1-1-3.1-3.1-.1-1.5-.1-2.9-.1-4.3.1-2.1 1.1-3 3.1-3.1 2.6-.1 5.2-.1 7.9 0 2 .1 3 1 3.1 3 .1 1.5.1 3 0 4.5-.1 2-1.1 2.9-3 3h-4zM29.9 30.3h-3.8C24 30.2 23 29.2 23 27c0-1.4-.1-2.7 0-4.1.1-2.1 1-3.1 3.1-3.1 2.6-.1 5.2-.1 7.9 0 2.1.1 3 1.1 3.1 3.1.1 1.4.1 2.9 0 4.3-.1 2-1.1 2.9-3 3-1.5.1-2.8.1-4.2.1zM47.9 19.8h3.8c2.2.1 3.2 1 3.3 3.2.1 1.4.1 2.9 0 4.3-.1 2-1.1 3-3 3-2.7.1-5.4.1-8 0-1.9-.1-2.9-1-3-2.9-.1-1.5-.1-3.1 0-4.6.1-1.9 1.1-2.8 2.9-2.9 1.3-.2 2.7-.1 4-.1zM12 44.6H8.2C6 44.5 5 43.6 5 41.4v-4.3c.1-2 1.1-3 3-3 2.6-.1 5.2-.1 7.9 0 2.1 0 3.1 1 3.1 3.1.1 1.4.1 2.9 0 4.3-.1 2.1-1.1 3-3.1 3.1H12zM30 44.6h-3.9c-2.1-.1-3-1.1-3.1-3.1-.1-1.4 0-2.7 0-4.1.1-2.2 1-3.2 3.2-3.2 2.6-.1 5.1-.1 7.7 0 2.2 0 3.1 1 3.2 3.2v3.9c-.1 2.3-1 3.3-3.3 3.3H30zM47.8 44.6H44c-2.1-.1-3.1-1-3.1-3.1-.1-1.4-.1-2.9 0-4.3.1-2 1-3 3-3.1 2.7-.1 5.4-.1 8 0 2 .1 2.9 1 3 3 .1 1.5.1 3 0 4.5-.1 2-1.1 2.9-3.1 3h-4z"/></g></svg><svg viewBox="0 0 60 50" width="16" height="13.33" id="political-science" y="140"><style>.kst0{fill:#d1d3d3}</style><path class="kst0" d="M12.6 28.3H9.8c-2.9-.1-4.7-1.8-4.8-4.7-.1-1.5 0-3 0-4.5.1-3.1 1.8-4.9 5-4.9 3.7 0 7.3-.1 11 0 8.1.3 15.2-2.4 21.7-6.7 1.4-.9 2.7-1.9 4.1-3 1.9-1.5 3.8-.9 4.5 1.5.2.7.3 1.4.3 2.1v6.5c0 1.7-.3 3.4 2 4.1.7.2 1.5 1.9 1.3 2.8-.2 1.1-1.1 2.3-2.1 2.8-1.1.6-1.4 1.1-1.3 2.1.1 2.7 0 5.4 0 8.1 0 .8-.1 1.6-.4 2.3-.7 2.1-2.6 2.6-4.3 1.3-5.5-4.3-11.4-7.7-18.3-9.2-3.8-.8-4.8-.5-6.4 2.2-.4.7-.8 2-.4 2.6 1.4 2.4-.9 5.7 1.9 7.8.9.7 1.6 1.5 2.4 2.3-1.8 2.4-5.2 3.2-8.8 2.1-1.4-.4-2.4-1.1-2.8-2.7-.6-2.3-1.6-4.4-1.9-6.7-.2-2.6.1-5.3.1-8.2zm13.9-3.1c8.1 1 15 4.7 21.6 9.6V7.6c-6.6 5-13.5 8.6-21.6 9.7v7.9z" id="kLayer_1"/></svg><svg viewBox="0 0 60 50" width="16" height="13.33" id="social-psychology" y="154"><style>.lst0{fill:#d1d3d3}</style><path class="lst0" d="M39.3 17c-.3 2-.5 3.9-.7 5.8-.1 1.5-.3 3-.2 4.4.2 3.6 3.3 5.2 6.4 3.3 2-1.2 4-2.4 6.5-1.7 2.4.7 3.3 2.6 3.6 4.8.3 2.2-.2 4.2-2 5.5-1.7 1.3-3.7 1.1-5.5.1-1-.5-1.9-1.6-2.9-1.8-1.4-.3-3.1-.5-4.4 0-1.6.6-1.6 2.4-1.4 3.9.2 2 .6 4 .9 6.3-3.8.3-7.3.7-10.9.8-3.2 0-4.4-2.4-2.9-5.2.4-.9 1.1-1.6 1.6-2.4 1.5-2.4 1.5-5-.2-6.8-1.8-2-5.6-2.5-8.3-1-2.3 1.3-3.3 3.6-2.4 6.3.4 1.3 1.2 2.6 1.9 3.8 1.5 2.6.3 5.3-2.6 5.3-3.6.2-7.2-.2-10.8-.4V17.2c1.9.2 3.8.5 5.7.7 1.5.1 3 .3 4.4.2 3.8-.2 5.3-3.3 3.3-6.5-1.2-1.9-2.2-3.8-1.7-6.1.6-2.5 2.5-3.5 4.8-3.8 2.2-.3 4.3.2 5.7 2.1 1.3 1.8 1 3.8-.1 5.7-.5.9-1.3 1.8-1.8 2.7-1.5 2.9-.3 5.4 2.9 5.6 3.2.2 6.4-.3 9.6-.5.4-.2.9-.3 1.5-.3z" id="lLayer_1"/></svg><svg viewBox="0 0 60 50" width="16" height="13.33" id="sociology" y="168"><style>.mst0{fill:#d1d3d3}</style><g id="mLayer_1"><path class="mst0" d="M22.1 34c0-3.8.1-7.6-.1-11.4 0-.9-.5-2.1-1.1-2.8-2.4-2.6-5-5-7.5-7.6-1.2-1.2-1.8-2.5-.7-4.1 1-1.5 2.9-1.6 4.5 0 2 1.9 3.8 3.9 5.9 5.8.6.6 1.6.7 2.4 1 .2.1.4 0 .6 0 3.1 0 6.6.8 9.3-.3 2.7-1.1 4.7-4 6.9-6.2 1.3-1.2 2.6-2 4.2-.9 1.5 1 1.6 2.9.1 4.5-2.4 2.5-4.7 4.9-7.2 7.2-1.2 1.2-1.6 2.4-1.6 4 .1 7.5 0 15 0 22.4 0 2.7-1.1 4.2-3.2 4.3-2 .1-3.4-1.1-3.4-3.3-.1-3.3 0-6.7 0-10 0-.9.3-2-1.2-2s-1.3 1-1.3 1.9v9.6c0 2.5-1.1 3.7-3.1 3.8-2.1 0-3.4-1.3-3.4-3.8-.1-4-.1-8-.1-12.1z"/><path class="mst0" d="M30 13.5c-3.9 0-6.7-2.8-6.7-6.7 0-4 2.8-6.8 6.8-6.8 3.8 0 6.7 2.9 6.6 6.8 0 3.8-2.8 6.6-6.7 6.7z"/></g></svg><svg viewBox="0 0 60 50" width="16" height="13.33" id="technology" y="182"><style>.nst0{fill:#d1d3d3}</style><path class="nst0" d="M48.5 40.6c-.3-.8-.8-1.5-1.2-2.2l-11.4-18c-.4-.6-.9-1.4-.9-2.1-.1-3.3 0-6.7 0-10.1h1.6c.9 0 1.6-.7 1.6-1.6S37.4 5 36.6 5H23.4c-.9 0-1.6.7-1.6 1.6s.7 1.6 1.6 1.6h1.7c0 2.8.1 5.6-.1 8.3-.1 1.5-.5 3-1.2 4.3C20 27 15.9 33.2 12 39.5c-1.9 3.1-.8 5.1 2.8 5.4H44c.8 0 1.7-.1 2.5-.3 2.1-.4 2.9-1.9 2-4zm-28.1-8.9c1.9-3.1 3.5-5.9 5.4-8.5 1.8-2.5 2.6-5.1 2.3-8.2-.2-2.2 0-4.4 0-6.8h3.6c0 2.6.1 5.2 0 7.8-.1 2.3.4 4.3 1.8 6.3 2.1 2.9 3.9 6.1 6 9.4H20.4z" id="nLayer_1"/></svg></svg>